<svg width="443.99999999999994" height="562" xmlns="http://www.w3.org/2000/svg" version="1.0" preserveAspectRatio="xMidYMid meet">
 <g>
  <title>Layer 1</title>
  <g id="skeleton_1_">
   <polyline style="fill:none;stroke:#000000;stroke-miterlimit:10;" points="209.56848698854446,176.2989959716797 190.75325566530228,178.3109130859375 178.87495976686478,185.9559783935547 170.70264226198196,197.302978515625 168.3269708752632,204.78713989257812 167.56674748659134,214.2027130126953 167.56674748659134,221.84771728515625 168.3269708752632,239.31082153320312 174.78883916139603,255.4056854248047 185.81189519166946,265.46514892578125 195.31450444459915,270.85693359375 209.56848698854446,273.4321594238281 223.6323907971382,271.1789245605469 233.1350458264351,265.7870178222656 244.1581476330757,255.6471405029297 250.6199091076851,239.55223083496094 251.38014775514603,222.1696319580078 251.38014775514603,214.44412231445312 250.6199091076851,205.02853393554688 248.2442529797554,197.62490844726562 240.4520929455757,185.9559783935547 228.47876530885696,178.3109130859375 209.56848698854446,176.2989959716797 "/>
   <polyline style="fill:none;stroke:#000000;stroke-miterlimit:10;" points="175.3589532971382,205.99423217773438 179.16003972291946,203.01666259765625 185.0516718029976,202.21188354492188 191.98860722780228,202.21188354492188 201.30115300416946,205.43089294433594 "/>
   <polygon style="fill:none;stroke:#000000;stroke-miterlimit:10;" points="181.2506464123726,212.5931854248047 186.19202214479446,209.6156005859375 192.17864018678665,209.6156005859375 197.12004643678665,212.99554443359375 192.17864018678665,213.80032348632812 186.19202214479446,214.44412231445312 "/>
   <polyline style="fill:none;stroke:#000000;stroke-miterlimit:10;" points="198.6404169201851,227.15911865234375 203.58183842897415,227.15911865234375 208.80827885866165,227.8028564453125 208.80827885866165,223.53770446777344 208.80827885866165,217.8240509033203 208.80827885866165,213.39793395996094 208.80827885866165,208.73033142089844 "/>
   <polyline style="fill:none;stroke:#000000;stroke-miterlimit:10;" points="243.30287724733353,205.6722869873047 239.50179082155228,203.3385772705078 233.51515752077103,202.1314239501953 226.5782373547554,202.45323181152344 217.07558232545853,205.02853393554688 "/>
   <polygon style="fill:none;stroke:#000000;stroke-miterlimit:10;" points="237.69629460573196,212.5931854248047 232.65991765260696,209.6156005859375 226.67322331666946,209.6156005859375 221.82692509889603,212.99554443359375 226.67322331666946,213.80032348632812 232.65991765260696,214.44412231445312 "/>
   <polyline style="fill:none;stroke:#000000;stroke-miterlimit:10;" points="218.69099980592728,227.15911865234375 213.9396875500679,227.15911865234375 208.80827885866165,227.8028564453125 "/>
   <polygon style="fill:none;stroke:#000000;stroke-miterlimit:10;" points="192.93884831666946,244.94406127929688 199.4957178235054,242.2079315185547 205.6724298596382,241.32269287109375 209.56848698854446,242.0469512939453 213.5596063733101,241.32269287109375 219.64124089479446,242.2079315185547 226.19814091920853,244.94406127929688 220.11638432741165,250.01405334472656 213.36955815553665,252.2672119140625 209.56848698854446,252.66966247558594 205.6724298596382,252.2672119140625 199.02058964967728,250.01405334472656 "/>
   <polyline style="fill:none;stroke:#000000;stroke-miterlimit:10;" points="192.93884831666946,244.94406127929688 196.3597772717476,245.1854705810547 205.86244755983353,244.54161071777344 209.56848698854446,244.94406127929688 213.36955815553665,244.54161071777344 222.77722722291946,245.1854705810547 226.19814091920853,244.94406127929688 "/>
   <polyline style="fill:none;stroke:#000000;stroke-miterlimit:10;" points="192.93884831666946,244.94406127929688 196.3597772717476,245.1854705810547 205.86244755983353,246.8754119873047 209.56848698854446,247.51931762695312 213.36955815553665,246.8754119873047 222.77722722291946,245.1854705810547 226.19814091920853,244.94406127929688 "/>
   <polygon style="fill:none;stroke:#000000;stroke-miterlimit:10;" points="167.00853169546644,288.2131158176562 189.0402195410952,360.1252746638602 240.0240894338349,359.85871107161074 260.25994900525984,288.2131158176562 "/>
   <polyline style="fill:none;stroke:#000000;stroke-miterlimit:10;" points="166.05566687125247,288.879749135549 119.86667329579905,288.879749135549 46.42303847958419,323.8172916913227 "/>
   <polyline style="fill:none;stroke:#000000;stroke-miterlimit:10;" points="260.7726061673311,287.5794675202851 308.92966164693644,287.5794675202851 385.1316833099845,323.71703676405014 "/>
   <polyline style="fill:none;stroke:#000000;stroke-miterlimit:10;" points="240.6770477294922,362.0005223296939 240.6770477294922,429.9183728536118 240.6770477294922,517.663149829772 "/>
   <polyline style="fill:none;stroke:#000000;stroke-miterlimit:10;" points="188.87191536336223,360.5471303777449 188.770827081263,428.62836473211064 188.770827081263,517.0233721536642 "/>
   <circle id="rightShoulder" cx="166.72051" cy="288.44625" r="1.24037"/>
   <circle id="rightElbow" cx="119.84747" cy="289.31298" r="1.24037"/>
   <circle id="rightWrist" cx="46.51361" cy="323.7839" r="1.24037"/>
   <circle id="rightHip" cx="189.33369" cy="360.19174" r="1.24037"/>
   <circle id="leftElbow" cx="308.58587" cy="287.67938" r="1.24037"/>
   <circle id="leftWrist" cx="385.08639" cy="323.6169" r="1.24037"/>
   <circle id="leftHip" cx="239.88221" cy="360.0912" r="1.24037"/>
   <circle id="leftShoulder" cx="260.30524" cy="288.11292" r="1.24037"/>
   <circle id="rightEye0" cx="181.25058" cy="212.59315" r="0.1322"/>
   <circle id="rightBrow1" cx="179.16" cy="203.01665" r="0.1322"/>
   <circle id="rightBrow4" cx="201.30117" cy="205.43089" r="0.1322"/>
   <circle id="nose1" cx="208.80825" cy="213.3979" r="0.1322"/>
   <circle id="rightBrow3" cx="191.98857" cy="202.21189" r="0.1322"/>
   <circle id="rightEye1" cx="186.19196" cy="209.61559" r="0.1322"/>
   <circle id="rightBrow0" cx="175.35894" cy="205.99421" r="0.1322"/>
   <circle id="rightBrow2" cx="185.05164" cy="202.21189" r="0.1322"/>
   <circle id="rightEye5" cx="186.19196" cy="214.44408" r="0.1322"/>
   <circle id="rightEye2" cx="192.17862" cy="209.61559" r="0.1322"/>
   <circle id="rightEye3" cx="197.12" cy="212.99553" r="0.1322"/>
   <circle id="nose0" cx="208.80825" cy="208.73036" r="0.1322"/>
   <circle id="nose3" cx="208.80825" cy="223.53773" r="0.1322"/>
   <circle id="rightNose0" cx="198.64042" cy="227.15911" r="0.1322"/>
   <circle id="rightMouthCorner" cx="192.93883" cy="244.94404" r="0.1322"/>
   <circle id="rightNose1" cx="203.5818" cy="227.15911" r="0.1322"/>
   <circle id="rightUpperLipTop0" cx="199.49566" cy="242.2079" r="0.1322"/>
   <circle id="nose2" cx="208.80825" cy="217.82402" r="0.1322"/>
   <circle id="nose4" cx="208.80825" cy="227.80291" r="0.1322"/>
   <circle id="upperLipTopMid" cx="209.56846" cy="242.04696" r="0.1322"/>
   <circle id="rightUpperLipTop1" cx="205.67238" cy="241.32268" r="0.1322"/>
   <path id="rightMiddleLip" d="m196.35979,244.54167c0.38011,0 0.76021,0.3219 0.76021,0.6438c0,0.3219 -0.38011,0.6438 -0.76021,0.6438s-0.76021,-0.3219 -0.76021,-0.6438s0.38011,-0.6438 0.76021,-0.6438z"/>
   <circle id="lowerLipBottomMid" cx="209.56846" cy="252.66963" r="0.1322"/>
   <circle id="upperLipBottomMid" cx="209.56846" cy="244.94404" r="0.1322"/>
   <circle id="lowerLipTopMid" cx="209.56846" cy="247.43877" r="0.1322"/>
   <circle id="rightUpperLipBottom1" cx="205.86243" cy="244.54167" r="0.1322"/>
   <circle id="rightLowerLipTop0" cx="205.86243" cy="246.87545" r="0.1322"/>
   <circle id="rightLowerLipBottom1" cx="205.67238" cy="252.26726" r="0.1322"/>
   <circle id="rightLowerLipBottom0" cx="199.02053" cy="250.01396" r="0.1322"/>
   <circle id="rightEye4" cx="192.17862" cy="213.80028" r="0.1322"/>
   <circle id="jawMid" cx="209.56846" cy="273.43215" r="0.1322"/>
   <circle id="rightJaw7" cx="195.31449" cy="270.85695" r="0.1322"/>
   <circle id="rightJaw6" cx="185.81185" cy="265.46514" r="0.1322"/>
   <circle id="rightJaw5" cx="174.78879" cy="255.40578" r="0.1322"/>
   <circle id="rightJaw4" cx="168.32698" cy="239.31081" r="0.1322"/>
   <circle id="rightJaw3" cx="167.56678" cy="221.84777" r="0.1322"/>
   <circle id="rightJaw2" cx="167.56678" cy="214.20266" r="0.1322"/>
   <circle id="rightJaw1" cx="168.32698" cy="204.7871" r="0.1322"/>
   <circle id="rightJaw0" cx="170.70265" cy="197.30293" r="0.1322"/>
   <circle id="topMid" cx="209.75852" cy="176.299" r="0.1322"/>
   <circle id="leftTop0" cx="228.47873" cy="178.31087" r="0.1322"/>
   <circle id="leftTop1" cx="240.45206" cy="185.95598" r="0.1322"/>
   <circle id="leftEye0" cx="237.88635" cy="212.59315" r="0.1322"/>
   <circle id="leftBrow1" cx="239.69185" cy="203.33854" r="0.1322"/>
   <circle id="leftBrow4" cx="217.2656" cy="205.02852" r="0.1322"/>
   <circle id="leftBrow3" cx="226.76825" cy="202.45332" r="0.1322"/>
   <circle id="leftEye1" cx="232.94497" cy="209.61559" r="0.1322"/>
   <circle id="leftBrow0" cx="243.49291" cy="205.67232" r="0.1322"/>
   <circle id="leftBrow2" cx="233.70518" cy="202.13142" r="0.1322"/>
   <circle id="leftEye5" cx="232.94497" cy="214.44408" r="0.1322"/>
   <circle id="leftEye2" cx="226.95831" cy="209.61559" r="0.1322"/>
   <circle id="leftEye3" cx="222.01693" cy="212.99553" r="0.1322"/>
   <circle id="leftNose0" cx="218.691" cy="227.15911" r="0.1322"/>
   <circle id="leftMouthCorner" cx="226.19809" cy="244.94404" r="0.1322"/>
   <circle id="leftNose1" cx="214.12973" cy="227.15911" r="0.1322"/>
   <circle id="leftUpperLipTop0" cx="219.64127" cy="242.2079" r="0.1322"/>
   <circle id="leftUpperLipTop1" cx="213.55958" cy="241.32268" r="0.1322"/>
   <path id="leftMiddleLip" d="m222.77714,244.54167c0.38011,0 0.76021,0.3219 0.76021,0.6438c0,0.3219 -0.38011,0.6438 -0.76021,0.6438s-0.76021,-0.3219 -0.76021,-0.6438s0.38011,-0.6438 0.76021,-0.6438z"/>
   <circle id="leftUpperLipBottom1" cx="213.36953" cy="244.54167" r="0.1322"/>
   <circle id="leftLowerLipTop0" cx="213.36953" cy="246.87545" r="0.1322"/>
   <circle id="leftLowerLipBottom1" cx="213.55958" cy="252.26726" r="0.1322"/>
   <circle id="leftLowerLipBottom0" cx="220.1164" cy="250.01396" r="0.1322"/>
   <circle id="leftEye4" cx="226.95831" cy="213.80028" r="0.1322"/>
   <circle id="leftJaw7" cx="223.63237" cy="271.17886" r="0.1322"/>
   <circle id="leftJaw6" cx="233.13503" cy="265.78704" r="0.1322"/>
   <circle id="leftJaw5" cx="244.15809" cy="255.64721" r="0.1322"/>
   <circle id="leftJaw4" cx="250.61989" cy="239.55223" r="0.13219"/>
   <circle id="leftJaw3" cx="251.3801" cy="222.16966" r="0.1322"/>
   <circle id="leftJaw2" cx="251.3801" cy="214.44408" r="0.1322"/>
   <circle id="leftJaw1" cx="250.61989" cy="205.02852" r="0.13219"/>
   <circle id="leftJaw0" cx="248.24423" cy="197.62483" r="0.1322"/>
   <circle id="rightTop0" cx="190.84825" cy="178.31087" r="0.1322"/>
   <circle id="rightTop1" cx="178.87492" cy="185.95598" r="0.1322"/>
   <circle id="rightKnee" cx="188.81612" cy="447.44964" r="1.24037"/>
   <circle id="rightAnkle" cx="188.81612" cy="516.9232" r="1.24039"/>
   <circle id="leftAnkle" cx="240.3826" cy="517.92304" r="1.24039"/>
   <circle id="leftKnee" cx="241.41199" cy="451.53766" r="1.24037"/>
  </g>
  <g id="illustration" transform="translate(0, 562) scale(0.1, -0.1)" fill="#000000">
   <path d="m1723.80458,5468.98291c-78,-40 -98,-109 -66,-229c20,-75 20,-78 -19,-78c-45,0 -72,-16 -92,-54c-25,-48 -11,-96 68,-231c211,-361 192,-323 175,-360c-11,-23 -14,-49 -10,-88c6,-61 20,-34 -187,-369c-125,-204 -139,-244 -105,-310c12,-23 25,-31 55,-36c22,-4 40,-12 40,-18c0,-11 -31,-116 -167,-570c-32,-104 -64,-197 -73,-207c-8,-9 -114,-62 -235,-117c-121,-55 -289,-132 -373,-172c-143,-68 -157,-73 -237,-78c-77,-4 -93,-2 -154,23c-62,25 -71,26 -97,14c-23,-11 -30,-22 -32,-51c-2,-22 3,-47 13,-62l16,-25l-48,-6c-64,-8 -113,-31 -114,-52c-5,-71 13,-93 75,-93l39,0l-21,-23c-12,-13 -22,-35 -22,-49c0,-40 25,-58 79,-58l47,0l-4,-36c-3,-27 1,-41 19,-60c31,-33 70,-31 144,7c33,17 94,46 135,64c150,65 196,88 230,115c34,26 382,200 400,200c6,0 10,-3 10,-7c0,-8 -108,-370 -210,-708c-162,-532 -183,-611 -175,-642c15,-60 189,-83 631,-83l234,0l0,-229l0,-228l-44,-28c-43,-27 -86,-87 -86,-119c0,-24 28,-27 275,-24l230,3l3,328l2,327l30,2c17,1 38,2 48,2c16,1 17,-23 22,-329l5,-330l245,0l245,0l3,29c2,15 -2,41 -8,56c-12,29 -71,75 -106,82c-18,3 -19,15 -22,257c-1,140 1,258 5,262c5,4 58,13 118,19c118,12 502,85 624,119c41,11 82,28 92,37c35,32 42,8 -185,629c-177,485 -225,625 -213,625c16,0 395,-191 407,-205c14,-17 166,-97 210,-110c14,-4 64,-27 113,-51c107,-54 155,-58 187,-17c16,20 20,36 16,58l-6,30l51,0c39,0 54,5 65,19c20,28 17,56 -8,83l-21,23l26,0c47,0 74,19 80,57c3,19 3,41 0,49c-9,24 -58,44 -108,44c-48,0 -52,4 -30,34c23,30 19,82 -7,100c-30,21 -60,20 -119,-5c-42,-18 -63,-21 -146,-17c-97,4 -100,5 -233,70c-74,36 -247,117 -385,178c-137,62 -255,118 -262,124c-6,6 -48,110 -92,231c-43,121 -102,282 -130,358c-28,75 -51,143 -51,151c0,7 13,16 30,19c39,8 64,56 57,109c-6,42 -42,96 -253,374c-118,155 -122,162 -119,205c2,24 6,52 10,62c4,10 0,27 -9,42l-16,25l222,111c123,61 231,118 241,126c49,45 43,151 -11,193c-22,18 -37,21 -84,18c-59,-4 -98,-28 -203,-124c-51,-46 -100,-84 -109,-84c-9,0 0,31 55,202c63,195 75,257 60,309c-15,49 -59,79 -116,79c-55,0 -98,-29 -123,-83c-21,-46 -22,-46 -49,-32c-37,20 -51,19 -96,-5c-43,-23 -42,-24 -52,62c-15,134 -131,204 -244,147zm161,-17c53,-31 65,-72 92,-307c14,-121 32,-269 40,-330c8,-60 17,-138 20,-172l7,-61l-78,-1c-43,0 -87,-2 -97,-3c-16,-3 -22,8 -36,62c-10,36 -38,146 -64,245c-26,99 -63,236 -83,304c-44,153 -42,200 8,243c60,49 129,57 191,20zm440,-93c78,-21 87,-103 32,-279c-20,-63 -63,-203 -96,-310c-33,-107 -63,-198 -66,-201c-4,-3 -35,-1 -69,4l-62,9l-7,54c-5,44 4,106 50,336c64,317 81,366 136,385c44,15 38,15 82,2zm-211,-109c12,-7 19,-21 19,-38c-1,-54 -87,-438 -93,-412c-10,47 -47,345 -47,382c0,60 66,97 121,68zm-439,-117c9,-10 46,-135 83,-278c36,-143 68,-268 71,-277c3,-10 0,-18 -6,-18c-6,0 -14,8 -17,18c-7,19 -78,139 -128,217c-123,192 -150,281 -100,330c29,29 75,33 97,8zm1009,-172c24,-25 29,-38 29,-78c0,-29 -7,-58 -16,-72c-18,-25 -460,-248 -471,-238c-3,4 6,44 21,90l26,84l92,79c50,43 105,91 122,105c80,67 149,78 197,30zm-777,-417c-23,-8 -58,-31 -78,-51c-33,-33 -36,-34 -36,-15c0,38 70,81 130,80c19,0 16,-3 -16,-14zm304,-18c17,-9 32,-23 32,-31c0,-18 -3,-18 -64,0c-65,20 -230,20 -285,0c-50,-17 -46,-5 5,20c79,37 250,44 312,11zm-41,-51c52,-15 79,-37 69,-53c-3,-6 -23,-1 -46,10c-35,18 -56,20 -167,16c-110,-3 -135,-6 -176,-27c-54,-26 -66,-24 -40,8c43,53 248,79 360,46zm-52,-337c38,-161 69,-311 69,-333c-1,-82 -59,-123 -153,-110c-52,7 -86,31 -101,71c-5,13 -16,138 -25,277c-8,138 -17,278 -20,310c-4,53 -3,58 18,67c12,5 49,9 83,9l61,1l68,-292zm34,281c25,-5 54,-20 66,-32c43,-43 354,-468 375,-512c23,-47 22,-75 -4,-110c-12,-16 -26,-20 -79,-20c-102,0 -108,7 -295,315c-95,156 -99,165 -138,343c-7,31 2,33 75,16zm-285,-61c3,-24 8,-93 11,-154l6,-111l-65,-135c-52,-108 -75,-144 -111,-176c-113,-100 -242,-67 -219,55c3,18 49,104 101,190c53,87 118,195 146,241c46,76 96,132 117,132c5,0 11,-19 14,-42zm338,-325c29,-48 56,-94 60,-103c4,-8 33,-53 65,-100c52,-75 63,-87 103,-99c89,-27 85,-22 124,-138c21,-59 53,-146 71,-193c33,-83 137,-375 148,-415c3,-11 45,-126 92,-255c125,-339 195,-532 295,-815c48,-137 96,-268 105,-290c10,-22 40,-105 67,-184l49,-143l-21,-23c-12,-13 -52,-31 -98,-43c-108,-29 -540,-109 -639,-117l-83,-7l0,95l0,95l118,7c172,11 610,0 645,-15c32,-15 50,-4 24,15c-78,57 -1118,18 -1762,-66c-280,-36 -607,-94 -646,-115c-16,-8 -29,-19 -29,-24c0,-14 6,-13 69,9c73,26 290,66 520,96c101,14 188,25 193,25c4,0 8,-43 8,-95l0,-94l-212,-3c-322,-4 -573,16 -610,49c-16,15 -19,26 -14,61c6,45 150,543 216,747c21,66 69,224 106,350c37,127 95,325 130,440c34,116 90,302 123,415c34,113 82,275 107,360c69,238 68,235 118,254c73,28 112,71 175,195l59,114l6,-84c11,-144 17,-175 37,-208c50,-82 226,-82 269,0c21,38 15,120 -16,257c-17,72 -30,132 -28,132c1,0 27,-39 56,-87zm836,-1195c98,-43 256,-117 352,-164c234,-113 330,-128 453,-74c55,25 92,21 102,-11c16,-48 -64,-109 -145,-111c-49,-1 -52,-3 -86,-50c-19,-27 -50,-58 -69,-70c-40,-23 -45,-38 -14,-38c13,0 46,25 84,65c47,48 70,65 90,65c25,0 26,-2 20,-32c-11,-52 -44,-121 -72,-150c-33,-35 -21,-59 14,-26c38,35 71,98 84,158c6,30 17,58 23,62c16,11 130,10 160,-2c35,-13 50,-44 35,-71c-11,-21 -16,-22 -105,-16c-77,5 -94,4 -94,-8c0,-8 22,-20 53,-29c62,-18 92,-45 82,-75c-5,-18 -14,-21 -64,-21c-35,0 -65,6 -77,15c-47,35 -60,7 -14,-32c51,-43 35,-103 -28,-103c-11,0 -45,14 -77,31c-32,17 -92,44 -134,61c-106,42 -184,83 -223,115c-18,16 -49,36 -68,45c-19,9 -110,53 -201,97c-152,73 -166,82 -176,113c-6,18 -36,104 -66,191c-50,142 -54,157 -36,152c12,-4 100,-43 197,-87zm-1720,19c-2,-7 -25,-91 -53,-185l-50,-172l-192,-95c-106,-52 -196,-95 -201,-95c-5,0 -19,-12 -33,-26c-23,-25 -100,-64 -234,-121c-33,-14 -86,-39 -119,-55c-63,-32 -107,-38 -131,-18c-24,20 -18,47 21,90c40,44 31,50 -31,24c-71,-29 -147,-2 -119,43c6,10 35,27 64,38c87,33 78,48 -24,40c-95,-8 -116,-1 -116,41c0,35 36,52 110,55c94,3 110,-4 110,-50c0,-63 77,-191 115,-191c22,0 18,14 -11,41c-33,30 -74,114 -74,152c0,24 3,27 35,27c19,0 35,-4 35,-10c0,-16 59,-78 96,-101c55,-34 63,-9 10,29c-25,17 -56,49 -70,70c-24,38 -27,40 -85,44c-66,5 -105,26 -131,71c-32,57 27,84 101,47c37,-19 55,-22 143,-18c100,4 102,5 251,72c83,38 166,77 185,88c46,25 383,177 393,178c5,0 7,-6 5,-13zm1200,-1925l2,-362l-25,6c-14,4 -25,2 -25,-4c0,-6 19,-13 43,-17c23,-4 54,-13 68,-21c38,-19 79,-71 79,-100l0,-24l-240,0l-240,0l0,434l0,434l73,6c107,9 177,13 222,12l40,-1l3,-363zm-465,66c9,-340 9,-517 1,-557l-6,-31l-234,0c-261,0 -258,-1 -211,67c25,38 82,69 145,79c23,4 42,11 42,16c0,6 -16,7 -40,3l-40,-7l0,336c0,313 1,336 18,337c9,0 73,6 142,14c69,7 137,13 151,14l26,1l6,-272zm105,175l-3,-98l-37,-3l-38,-3l0,100l0,101l40,0l41,0l-3,-97z" id="svg_1"/>
   <path d="m2275.80458,3649.98291c-71,-14 -122,-59 -103,-90c7,-12 17,-10 56,10c35,17 66,24 113,24c66,1 81,10 59,38c-17,20 -71,28 -125,18z" id="svg_2"/>
   <path d="m1749.80458,3634.98291c-34,-33 -22,-45 48,-45c47,0 78,-6 106,-21c71,-36 96,-1 34,47c-46,35 -161,47 -188,19z" id="svg_3"/>
   <path d="m1785.80458,3489.98291c-110,-67 -62,-243 66,-243c74,0 131,60 131,136c-1,98 -113,159 -197,107z" id="svg_4"/>
   <path d="m2274.80458,3495.98291c-62,-34 -81,-125 -39,-187c31,-46 62,-61 122,-56c42,4 54,10 81,41c17,20 34,50 38,67c8,44 -24,113 -63,133c-36,19 -107,20 -139,2z" id="svg_5"/>
   <path d="m1952.80458,3160.98291c0,-30 54,-55 121,-55c63,-1 109,22 109,54c0,25 -4,25 -57,-1c-42,-20 -45,-21 -91,-5c-84,30 -82,30 -82,7z" id="svg_6"/>
  </g>
 </g>
</svg>