<?xml version="1.0" standalone="no"?>
<!DOCTYPE svg PUBLIC "-//W3C//DTD SVG 20010904//EN"
 "http://www.w3.org/TR/2001/REC-SVG-20010904/DTD/svg10.dtd">
<svg version="1.0" xmlns="http://www.w3.org/2000/svg"
 width="444.000000pt" height="562.000000pt" viewBox="0 0 444.000000 562.000000"
 preserveAspectRatio="xMidYMid meet">

<g transform="translate(0.000000,562.000000) scale(0.100000,-0.100000)"
fill="#000000" stroke="none">
<path d="
M1781 5439 
c-78 -40 -98 -109 -66 -229 20 -75 20 -78 -19 -78 -45 0
-72 -16 -92 -54 -25 -48 -11 -96 68 -231 211 -361 192 -323 175 -360 -11 -23
-14 -49 -10 -88 6 -61 20 -34 -187 -369 -125 -204 -139 -244 -105 -310 12 -23
25 -31 55 -36 22 -4 40 -12 40 -18 0 -11 -31 -116 -167 -570 -32 -104 -64
-197 -73 -207 -8 -9 -114 -62 -235 -117 -121 -55 -289 -132 -373 -172 -143
-68 -157 -73 -237 -78 -77 -4 -93 -2 -154 23 -62 25 -71 26 -97 14 -23 -11
-30 -22 -32 -51 -2 -22 3 -47 13 -62 
l16 -25 -48 -6 
c-64 -8 -113 -31 -114 -52 -5 -71 13 -93 75 -93 
l39 0 -21 -23 
c-12 -13 -22 -35 -22 -49 0 -40 25 -58 79 -58 
l47 0 -4 -36 
c-3 -27 1 -41 19 -60 31 -33 70 -31 144 7 33 17 94
46 135 64 150 65 196 88 230 115 34 26 382 200 400 200 6 0 10 -3 10 -7 0 -8
-108 -370 -210 -708 -162 -532 -183 -611 -175 -642 15 -60 189 -83 631 -83
l234 0 0 -229 0 -228 -44 -28 
c-43 -27 -86 -87 -86 -119 0 -24 28 -27 275 -24
l230 3 3 328 2 327 30 2 
c17 1 38 2 48 2 16 1 17 -23 22 -329 
l5 -330 245 0
245 0 3 29 
c2 15 -2 41 -8 56 -12 29 -71 75 -106 82 -18 3 -19 15 -22 257 -1
140 1 258 5 262 5 4 58 13 118 19 118 12 502 85 624 119 41 11 82 28 92 37 35
32 42 8 -185 629 -177 485 -225 625 -213 625 16 0 395 -191 407 -205 14 -17
166 -97 210 -110 14 -4 64 -27 113 -51 107 -54 155 -58 187 -17 16 20 20 36
16 58 
l-6 30 51 0 
c39 0 54 5 65 19 20 28 17 56 -8 83 
l-21 23 26 0 
c47 0 74
19 80 57 3 19 3 41 0 49 -9 24 -58 44 -108 44 -48 0 -52 4 -30 34 23 30 19 82
-7 100 -30 21 -60 20 -119 -5 -42 -18 -63 -21 -146 -17 -97 4 -100 5 -233 70
-74 36 -247 117 -385 178 -137 62 -255 118 -262 124 -6 6 -48 110 -92 231 -43
121 -102 282 -130 358 -28 75 -51 143 -51 151 0 7 13 16 30 19 39 8 64 56 57
109 -6 42 -42 96 -253 374 -118 155 -122 162 -119 205 2 24 6 52 10 62 4 10 0
27 -9 42 
l-16 25 222 111 
c123 61 231 118 241 126 49 45 43 151 -11 193 -22
18 -37 21 -84 18 -59 -4 -98 -28 -203 -124 -51 -46 -100 -84 -109 -84 -9 0 0
31 55 202 63 195 75 257 60 309 -15 49 -59 79 -116 79 -55 0 -98 -29 -123 -83
-21 -46 -22 -46 -49 -32 -37 20 -51 19 -96 -5 -43 -23 -42 -24 -52 62 -15 134
-131 204 -244 147z 
m161 -17 
c53 -31 65 -72 92 -307 14 -121 32 -269 40 -330 8 -60 17 -138 20 -172 
l7 -61 -78 -1 
c-43 0 -87 -2 -97 -3 -16 -3 -22 8 -36 62 -10 36 -38 146 -64 245 -26 99 -63 236 -83 304 -44 153 -42 200 8 243 60 49 129 57 191 20z 
m440 -93 
c78 -21 87 -103 32 -279 -20 -63 -63 -203 -96
-310 -33 -107 -63 -198 -66 -201 -4 -3 -35 -1 -69 4 
l-62 9 -7 54 
c-5 44 4 106 50 336 64 317 81 366 136 385 44 15 38 15 82 2z m-211 -109 
c12 -7 19 -21 19 -38 -1 -54 -87 -438 -93 -412 -10 47 -47 345 -47 382 0 60 66 97 121 68z
m-439 -117 
c9 -10 46 -135 83 -278 36 -143 68 -268 71 -277 3 -10 0 -18 -6
-18 -6 0 -14 8 -17 18 -7 19 -78 139 -128 217 -123 192 -150 281 -100 330 29
29 75 33 97 8z 
m1009 -172 
c24 -25 29 -38 29 -78 0 -29 -7 -58 -16 -72 -18
-25 -460 -248 -471 -238 -3 4 6 44 21 90 
l26 84 92 79 
c50 43 105 91 122 105 80 67 149 78 197 30z 
m-777 -417 
c-23 -8 -58 -31 -78 -51 -33 -33 -36 -34 -36
-15 0 38 70 81 130 80 19 0 16 -3 -16 -14z 
m304 -18 
c17 -9 32 -23 32 -31 0
-18 -3 -18 -64 0 -65 20 -230 20 -285 0 -50 -17 -46 -5 5 20 79 37 250 44 312
11z 
m-41 -51 
c52 -15 79 -37 69 -53 -3 -6 -23 -1 -46 10 -35 18 -56 20 -167
16 -110 -3 -135 -6 -176 -27 -54 -26 -66 -24 -40 8 43 53 248 79 360 46z m-52
-337 
c38 -161 69 -311 69 -333 -1 -82 -59 -123 -153 -110 -52 7 -86 31 -101
71 -5 13 -16 138 -25 277 -8 138 -17 278 -20 310 -4 53 -3 58 18 67 12 5 49 9
83 9 
l61 1 68 -292z 
m34 281 
c25 -5 54 -20 66 -32 43 -43 354 -468 375 -512
23 -47 22 -75 -4 -110 -12 -16 -26 -20 -79 -20 -102 0 -108 7 -295 315 -95
156 -99 165 -138 343 -7 31 2 33 75 16z 
m-285 -61 
c3 -24 8 -93 11 -154 
l6 -111 -65 -135 
c-52 -108 -75 -144 -111 -176 -113 -100 -242 -67 -219 55 3 18
49 104 101 190 53 87 118 195 146 241 46 76 96 132 117 132 5 0 11 -19 14 -42z
m338 -325 
c29 -48 56 -94 60 -103 4 -8 33 -53 65 -100 52 -75 63 -87 103 -99
89 -27 85 -22 124 -138 21 -59 53 -146 71 -193 33 -83 137 -375 148 -415 3
-11 45 -126 92 -255 125 -339 195 -532 295 -815 48 -137 96 -268 105 -290 10
-22 40 -105 67 -184 
l49 -143 -21 -23 
c-12 -13 -52 -31 -98 -43 -108 -29 -540 -109 -639 -117 
l-83 -7 0 95 0 95 118 7 
c172 11 610 0 645 -15 32 -15 50 -4
24 15 -78 57 -1118 18 -1762 -66 -280 -36 -607 -94 -646 -115 -16 -8 -29 -19
-29 -24 0 -14 6 -13 69 9 73 26 290 66 520 96 101 14 188 25 193 25 4 0 8 -43
8 -95 
l0 -94 -212 -3 
c-322 -4 -573 16 -610 49 -16 15 -19 26 -14 61 6 45 150
543 216 747 21 66 69 224 106 350 37 127 95 325 130 440 34 116 90 302 123
415 34 113 82 275 107 360 69 238 68 235 118 254 73 28 112 71 175 195 
l59 114 6 -84 
c11 -144 17 -175 37 -208 50 -82 226 -82 269 0 21 38 15 120 -16 257 -17 72 -30 132 -28 132 1 0 27 -39 56 -87z 
m836 -1195 
c98 -43 256 -117
352 -164 234 -113 330 -128 453 -74 55 25 92 21 102 -11 16 -48 -64 -109 -145
-111 -49 -1 -52 -3 -86 -50 -19 -27 -50 -58 -69 -70 -40 -23 -45 -38 -14 -38
13 0 46 25 84 65 47 48 70 65 90 65 25 0 26 -2 20 -32 -11 -52 -44 -121 -72
-150 -33 -35 -21 -59 14 -26 38 35 71 98 84 158 6 30 17 58 23 62 16 11 130
10 160 -2 35 -13 50 -44 35 -71 -11 -21 -16 -22 -105 -16 -77 5 -94 4 -94 -8
0 -8 22 -20 53 -29 62 -18 92 -45 82 -75 -5 -18 -14 -21 -64 -21 -35 0 -65 6
-77 15 -47 35 -60 7 -14 -32 51 -43 35 -103 -28 -103 -11 0 -45 14 -77 31 -32
17 -92 44 -134 61 -106 42 -184 83 -223 115 -18 16 -49 36 -68 45 -19 9 -110
53 -201 97 -152 73 -166 82 -176 113 -6 18 -36 104 -66 191 -50 142 -54 157
-36 152 12 -4 100 -43 197 -87z 
m-1720 19 
c-2 -7 -25 -91 -53 -185 
l-50 -172 -192 -95 
c-106 -52 -196 -95 -201 -95 -5 0 -19 -12 -33 -26 -23 -25 -100 -64
-234 -121 -33 -14 -86 -39 -119 -55 -63 -32 -107 -38 -131 -18 -24 20 -18 47
21 90 40 44 31 50 -31 24 -71 -29 -147 -2 -119 43 6 10 35 27 64 38 87 33 78
48 -24 40 -95 -8 -116 -1 -116 41 0 35 36 52 110 55 94 3 110 -4 110 -50 0
-63 77 -191 115 -191 22 0 18 14 -11 41 -33 30 -74 114 -74 152 0 24 3 27 35
27 19 0 35 -4 35 -10 0 -16 59 -78 96 -101 55 -34 63 -9 10 29 -25 17 -56 49
-70 70 -24 38 -27 40 -85 44 -66 5 -105 26 -131 71 -32 57 27 84 101 47 37
-19 55 -22 143 -18 100 4 102 5 251 72 83 38 166 77 185 88 46 25 383 177 393
178 5 0 7 -6 5 -13z 
m1200 -1925 
l2 -362 -25 6 
c-14 4 -25 2 -25 -4 0 -6 19
-13 43 -17 23 -4 54 -13 68 -21 38 -19 79 -71 79 -100 
l0 -24 -240 0 -240 0 0 434 0 434 73 6 
c107 9 177 13 222 12 
l40 -1 3 -363z 
m-465 66 
c9 -340 9 -517 1 -557 
l-6 -31 -234 0 
c-261 0 -258 -1 -211 67 25 38 82 69 145 79 23 4 42 11
42 16 0 6 -16 7 -40 3 
l-40 -7 0 336 
c0 313 1 336 18 337 9 0 73 6 142 14 69
7 137 13 151 14 
l26 1 6 -272z 
m105 175 
l-3 -98 -37 -3 -38 -3 0 100 0 101 40
0 41 0 -3 -97z"/>
<path d="M2333 3620 c-71 -14 -122 -59 -103 -90 7 -12 17 -10 56 10 35 17 66
24 113 24 66 1 81 10 59 38 -17 20 -71 28 -125 18z"/>
<path d="M1807 3605 c-34 -33 -22 -45 48 -45 47 0 78 -6 106 -21 71 -36 96 -1
34 47 -46 35 -161 47 -188 19z"/>
<path d="M1843 3460 c-110 -67 -62 -243 66 -243 74 0 131 60 131 136 -1 98
-113 159 -197 107z"/>
<path d="M2332 3466 c-62 -34 -81 -125 -39 -187 31 -46 62 -61 122 -56 42 4
54 10 81 41 17 20 34 50 38 67 8 44 -24 113 -63 133 -36 19 -107 20 -139 2z"/>
<path d="M2010 3131 c0 -30 54 -55 121 -55 63 -1 109 22 109 54 0 25 -4 25
-57 -1 -42 -20 -45 -21 -91 -5 -84 30 -82 30 -82 7z"/>
</g>
</svg>
