<?xml version="1.0" encoding="utf-8"?>
<svg version="1.1" id="Layer_1" width="444" height="562" xmlns="http://www.w3.org/2000/svg" preserveAspectRatio="xMidYMid meet">
<g id="illustration_1_" transform="translate(0, 562) scale(0.1, -0.1)" fill="#000000">
    <path d="m1781,5439c-78,-40 -98,-109 -66,-229c20,-75 20,-78 -19,-78c-45,0 -72,-16 -92,-54c-25,-48 -11,-96 68,-231c211,-361 192,-323 175,-360c-11,-23 -14,-49 -10,-88c6,-61 20,-34 -187,-369c-125,-204 -139,-244 -105,-310c12,-23 25,-31 55,-36c22,-4 40,-12 40,-18c0,-11 -31,-116 -167,-570c-32,-104 -64,-197 -73,-207c-8,-9 -114,-62 -235,-117c-121,-55 -289,-132 -373,-172c-143,-68 -157,-73 -237,-78c-77,-4 -93,-2 -154,23c-62,25 -71,26 -97,14c-23,-11 -30,-22 -32,-51c-2,-22 3,-47 13,-62l16,-25l-48,-6c-64,-8 -113,-31 -114,-52c-5,-71 13,-93 75,-93l39,0l-21,-23c-12,-13 -22,-35 -22,-49c0,-40 25,-58 79,-58l47,0l-4,-36c-3,-27 1,-41 19,-60c31,-33 70,-31 144,7c33,17 94,46 135,64c150,65 196,88 230,115c34,26 382,200 400,200c6,0 10,-3 10,-7c0,-8 -108,-370 -210,-708c-162,-532 -183,-611 -175,-642c15,-60 189,-83 631,-83l234,0l0,-229l0,-228l-44,-28c-43,-27 -86,-87 -86,-119c0,-24 28,-27 275,-24l230,3l3,328l2,327l30,2c17,1 38,2 48,2c16,1 17,-23 22,-329l5,-330l245,0l245,0l3,29c2,15 -2,41 -8,56c-12,29 -71,75 -106,82c-18,3 -19,15 -22,257c-1,140 1,258 5,262c5,4 58,13 118,19c118,12 502,85 624,119c41,11 82,28 92,37c35,32 42,8 -185,629c-177,485 -225,625 -213,625c16,0 395,-191 407,-205c14,-17 166,-97 210,-110c14,-4 64,-27 113,-51c107,-54 155,-58 187,-17c16,20 20,36 16,58l-6,30l51,0c39,0 54,5 65,19c20,28 17,56 -8,83l-21,23l26,0c47,0 74,19 80,57c3,19 3,41 0,49c-9,24 -58,44 -108,44c-48,0 -52,4 -30,34c23,30 19,82 -7,100c-30,21 -60,20 -119,-5c-42,-18 -63,-21 -146,-17c-97,4 -100,5 -233,70c-74,36 -247,117 -385,178c-137,62 -255,118 -262,124c-6,6 -48,110 -92,231c-43,121 -102,282 -130,358c-28,75 -51,143 -51,151c0,7 13,16 30,19c39,8 64,56 57,109c-6,42 -42,96 -253,374c-118,155 -122,162 -119,205c2,24 6,52 10,62c4,10 0,27 -9,42l-16,25l222,111c123,61 231,118 241,126c49,45 43,151 -11,193c-22,18 -37,21 -84,18c-59,-4 -98,-28 -203,-124c-51,-46 -100,-84 -109,-84c-9,0 0,31 55,202c63,195 75,257 60,309c-15,49 -59,79 -116,79c-55,0 -98,-29 -123,-83c-21,-46 -22,-46 -49,-32c-37,20 -51,19 -96,-5c-43,-23 -42,-24 -52,62c-15,134 -131,204 -244,147zm161,-17c53,-31 65,-72 92,-307c14,-121 32,-269 40,-330c8,-60 17,-138 20,-172l7,-61l-78,-1c-43,0 -87,-2 -97,-3c-16,-3 -22,8 -36,62c-10,36 -38,146 -64,245c-26,99 -63,236 -83,304c-44,153 -42,200 8,243c60,49 129,57 191,20zm440,-93c78,-21 87,-103 32,-279c-20,-63 -63,-203 -96,-310c-33,-107 -63,-198 -66,-201c-4,-3 -35,-1 -69,4l-62,9l-7,54c-5,44 4,106 50,336c64,317 81,366 136,385c44,15 38,15 82,2zm-211,-109c12,-7 19,-21 19,-38c-1,-54 -87,-438 -93,-412c-10,47 -47,345 -47,382c0,60 66,97 121,68zm-439,-117c9,-10 46,-135 83,-278c36,-143 68,-268 71,-277c3,-10 0,-18 -6,-18c-6,0 -14,8 -17,18c-7,19 -78,139 -128,217c-123,192 -150,281 -100,330c29,29 75,33 97,8zm1009,-172c24,-25 29,-38 29,-78c0,-29 -7,-58 -16,-72c-18,-25 -460,-248 -471,-238c-3,4 6,44 21,90l26,84l92,79c50,43 105,91 122,105c80,67 149,78 197,30zm-777,-417c-23,-8 -58,-31 -78,-51c-33,-33 -36,-34 -36,-15c0,38 70,81 130,80c19,0 16,-3 -16,-14zm304,-18c17,-9 32,-23 32,-31c0,-18 -3,-18 -64,0c-65,20 -230,20 -285,0c-50,-17 -46,-5 5,20c79,37 250,44 312,11zm-41,-51c52,-15 79,-37 69,-53c-3,-6 -23,-1 -46,10c-35,18 -56,20 -167,16c-110,-3 -135,-6 -176,-27c-54,-26 -66,-24 -40,8c43,53 248,79 360,46zm-52,-337c38,-161 69,-311 69,-333c-1,-82 -59,-123 -153,-110c-52,7 -86,31 -101,71c-5,13 -16,138 -25,277c-8,138 -17,278 -20,310c-4,53 -3,58 18,67c12,5 49,9 83,9l61,1l68,-292zm34,281c25,-5 54,-20 66,-32c43,-43 354,-468 375,-512c23,-47 22,-75 -4,-110c-12,-16 -26,-20 -79,-20c-102,0 -108,7 -295,315c-95,156 -99,165 -138,343c-7,31 2,33 75,16zm-285,-61c3,-24 8,-93 11,-154l6,-111l-65,-135c-52,-108 -75,-144 -111,-176c-113,-100 -242,-67 -219,55c3,18 49,104 101,190c53,87 118,195 146,241c46,76 96,132 117,132c5,0 11,-19 14,-42zm338,-325c29,-48 56,-94 60,-103c4,-8 33,-53 65,-100c52,-75 63,-87 103,-99c89,-27 85,-22 124,-138c21,-59 53,-146 71,-193c33,-83 137,-375 148,-415c3,-11 45,-126 92,-255c125,-339 195,-532 295,-815c48,-137 96,-268 105,-290c10,-22 40,-105 67,-184l49,-143l-21,-23c-12,-13 -52,-31 -98,-43c-108,-29 -540,-109 -639,-117l-83,-7l0,95l0,95l118,7c172,11 610,0 645,-15c32,-15 50,-4 24,15c-78,57 -1118,18 -1762,-66c-280,-36 -607,-94 -646,-115c-16,-8 -29,-19 -29,-24c0,-14 6,-13 69,9c73,26 290,66 520,96c101,14 188,25 193,25c4,0 8,-43 8,-95l0,-94l-212,-3c-322,-4 -573,16 -610,49c-16,15 -19,26 -14,61c6,45 150,543 216,747c21,66 69,224 106,350c37,127 95,325 130,440c34,116 90,302 123,415c34,113 82,275 107,360c69,238 68,235 118,254c73,28 112,71 175,195l59,114l6,-84c11,-144 17,-175 37,-208c50,-82 226,-82 269,0c21,38 15,120 -16,257c-17,72 -30,132 -28,132c1,0 27,-39 56,-87zm836,-1195c98,-43 256,-117 352,-164c234,-113 330,-128 453,-74c55,25 92,21 102,-11c16,-48 -64,-109 -145,-111c-49,-1 -52,-3 -86,-50c-19,-27 -50,-58 -69,-70c-40,-23 -45,-38 -14,-38c13,0 46,25 84,65c47,48 70,65 90,65c25,0 26,-2 20,-32c-11,-52 -44,-121 -72,-150c-33,-35 -21,-59 14,-26c38,35 71,98 84,158c6,30 17,58 23,62c16,11 130,10 160,-2c35,-13 50,-44 35,-71c-11,-21 -16,-22 -105,-16c-77,5 -94,4 -94,-8c0,-8 22,-20 53,-29c62,-18 92,-45 82,-75c-5,-18 -14,-21 -64,-21c-35,0 -65,6 -77,15c-47,35 -60,7 -14,-32c51,-43 35,-103 -28,-103c-11,0 -45,14 -77,31c-32,17 -92,44 -134,61c-106,42 -184,83 -223,115c-18,16 -49,36 -68,45c-19,9 -110,53 -201,97c-152,73 -166,82 -176,113c-6,18 -36,104 -66,191c-50,142 -54,157 -36,152c12,-4 100,-43 197,-87zm-1720,19c-2,-7 -25,-91 -53,-185l-50,-172l-192,-95c-106,-52 -196,-95 -201,-95c-5,0 -19,-12 -33,-26c-23,-25 -100,-64 -234,-121c-33,-14 -86,-39 -119,-55c-63,-32 -107,-38 -131,-18c-24,20 -18,47 21,90c40,44 31,50 -31,24c-71,-29 -147,-2 -119,43c6,10 35,27 64,38c87,33 78,48 -24,40c-95,-8 -116,-1 -116,41c0,35 36,52 110,55c94,3 110,-4 110,-50c0,-63 77,-191 115,-191c22,0 18,14 -11,41c-33,30 -74,114 -74,152c0,24 3,27 35,27c19,0 35,-4 35,-10c0,-16 59,-78 96,-101c55,-34 63,-9 10,29c-25,17 -56,49 -70,70c-24,38 -27,40 -85,44c-66,5 -105,26 -131,71c-32,57 27,84 101,47c37,-19 55,-22 143,-18c100,4 102,5 251,72c83,38 166,77 185,88c46,25 383,177 393,178c5,0 7,-6 5,-13zm1200,-1925l2,-362l-25,6c-14,4 -25,2 -25,-4c0,-6 19,-13 43,-17c23,-4 54,-13 68,-21c38,-19 79,-71 79,-100l0,-24l-240,0l-240,0l0,434l0,434l73,6c107,9 177,13 222,12l40,-1l3,-363zm-465,66c9,-340 9,-517 1,-557l-6,-31l-234,0c-261,0 -258,-1 -211,67c25,38 82,69 145,79c23,4 42,11 42,16c0,6 -16,7 -40,3l-40,-7l0,336c0,313 1,336 18,337c9,0 73,6 142,14c69,7 137,13 151,14l26,1l6,-272zm105,175l-3,-98l-37,-3l-38,-3l0,100l0,101l40,0l41,0l-3,-97z"/>
    <path d="m2333,3620c-71,-14 -122,-59 -103,-90c7,-12 17,-10 56,10c35,17 66,24 113,24c66,1 81,10 59,38c-17,20 -71,28 -125,18z"/>
    <path d="m1807,3605c-34,-33 -22,-45 48,-45c47,0 78,-6 106,-21c71,-36 96,-1 34,47c-46,35 -161,47 -188,19z"/>
    <path d="m1843,3460c-110,-67 -62,-243 66,-243c74,0 131,60 131,136c-1,98 -113,159 -197,107z"/>
    <path d="m2332,3466c-62,-34 -81,-125 -39,-187c31,-46 62,-61 122,-56c42,4 54,10 81,41c17,20 34,50 38,67c8,44 -24,113 -63,133c-36,19 -107,20 -139,2z"/>
    <path d="m2010,3131c0,-30 54,-55 121,-55c63,-1 109,22 109,54c0,25 -4,25 -57,-1c-42,-20 -45,-21 -91,-5c-84,30 -82,30 -82,7z"/>
</g>
<g id="skeleton_1_">
    <polygon id="svg_1" stroke-miterlimit="10" stroke="#000000" fill="none" points="160.74391174316406,293.17110301165667 186.39031982421875,363.2915018861531 245.73927307128906,363.0315609695499 269.2953186035156,293.17110301165667 "/>
    <polyline id="svg_10" stroke-miterlimit="10" stroke="#000000" fill="none" points="186.39031982421875,363.29150018723885 189.65357971191406,431.9270685230149 189.65357971191406,521.0420066013612 "/>
    <polyline id="svg_11" stroke-miterlimit="10" stroke="#000000" fill="none" points="245.73927307128906,362.9487525189834 245.73927307128906,431.9270685230149 245.73927307128906,521.0420066013612 "/>
    <polyline id="svg_12" stroke-miterlimit="10" stroke="#000000" fill="none" points="213.34517281630542,179.9696807861328 195.03413789829938,181.94361877441406 183.4741213604575,189.4446258544922 175.52080281672534,200.5777587890625 173.2088836231269,207.92083740234375 172.46903895091964,217.158935546875 172.46903895091964,224.66000366210938 173.2088836231269,241.79391479492188 179.497555548558,257.5855407714844 190.22518647060497,267.4552917480469 199.4731592015596,272.74554443359375 213.34517281630542,275.272216796875 227.0322603104869,273.06134033203125 236.28026419476373,267.7711486816406 247.0078951168107,257.82244873046875 253.2964735822752,242.03077697753906 254.03638056112686,224.97584533691406 254.03638056112686,217.39584350585938 253.2964735822752,208.15771484375 250.98441419872688,200.89358520507812 243.40116596937878,189.4446258544922 231.74865521793254,181.94361877441406 213.34517281630542,179.9696807861328 "/>
    <polyline id="svg_13" stroke-miterlimit="10" stroke="#000000" fill="none" points="180.05241179355653,209.105224609375 183.7515884246095,206.18380737304688 189.4853573750588,205.39419555664062 196.23643806186737,205.39419555664062 205.29939121229108,208.55252075195312 "/>
    <polygon id="svg_14" stroke-miterlimit="10" stroke="#000000" fill="none" points="185.78610286070034,215.579833984375 190.59516332502244,212.65835571289062 196.42133302910952,212.65835571289062 201.23026888014283,215.974609375 196.42133302910952,216.76416015625 190.59516332502244,217.39584350585938 "/>
    <polyline id="svg_15" stroke-miterlimit="10" stroke="#000000" fill="none" points="202.70994264789624,229.87124633789062 207.51898753555724,229.87124633789062 212.60535929742036,230.5028839111328 212.60535929742036,226.318115234375 212.60535929742036,220.7121124267578 212.60535929742036,216.36935424804688 212.60535929742036,211.78982543945312 "/>
    <polyline id="svg_16" stroke-miterlimit="10" stroke="#000000" fill="none" points="246.17555623099906,208.7894287109375 242.47642632992938,206.49957275390625 236.65010085923132,205.31524658203125 229.89914478571154,205.63107299804688 220.6511409014347,208.15771484375 "/>
    <polygon id="svg_17" stroke-miterlimit="10" stroke="#000000" fill="none" points="240.71920761471847,215.579833984375 235.8177308200975,212.65835571289062 229.99157669267152,212.65835571289062 225.27516620856477,215.974609375 229.99157669267152,216.76416015625 235.8177308200975,217.39584350585938 "/>
    <polyline id="svg_18" stroke-miterlimit="10" stroke="#000000" fill="none" points="222.2231998461648,229.87124633789062 217.59917453903472,229.87124633789062 212.60535929742036,230.5028839111328 "/>
    <polygon id="svg_19" stroke-miterlimit="10" stroke="#000000" fill="none" points="197.16119327797787,247.3209991455078 203.54228153370786,244.6363983154297 209.55353312497027,243.7678985595703 213.34517281630542,244.47848510742188 217.22938460455043,243.7678985595703 223.14807967556408,244.6363983154297 229.52918350795517,247.3209991455078 223.61044170695823,252.29534912109375 217.0444273306639,254.50619506835938 213.34517281630542,254.9009552001953 209.55353312497027,254.50619506835938 203.07991950231371,252.29534912109375 "/>
    <polyline id="svg_20" stroke-miterlimit="10" stroke="#000000" fill="none" points="197.16119327797787,247.3209991455078 200.49048651457997,247.5578155517578 209.7384903988568,246.92617797851562 213.34517281630542,247.3209991455078 217.0444273306639,246.92617797851562 226.19990584801417,247.5578155517578 229.52918350795517,247.3209991455078 "/>
    <polyline id="svg_21" stroke-miterlimit="10" stroke="#000000" fill="none" points="197.16119327797787,247.3209991455078 200.49048651457997,247.5578155517578 209.7384903988568,249.2160186767578 213.34517281630542,249.84765625 217.0444273306639,249.2160186767578 226.19990584801417,247.5578155517578 229.52918350795517,247.3209991455078 "/>
    <circle r="0.57678" cy="520.91344" cx="189.70453" id="rightAnkle"/>
    <circle r="0.57678" cy="520.91344" cx="245.79028" id="leftAnkle"/>
    <circle r="0.57675" cy="293.7025" cx="161.12816" id="rightShoulder"/>
    <circle r="0.57675" cy="363.16297" cx="186.44136" id="rightHip"/>
    <circle r="0.57675" cy="431.79857" cx="189.70453" id="rightKnee"/>
    <circle r="0.57675" cy="362.82023" cx="245.79028" id="leftHip"/>
    <circle r="0.57675" cy="431.79857" cx="245.79028" id="leftKnee"/>
    <circle r="0.57675" cy="293.70623" cx="270.17963" id="leftShoulder"/>
    <circle r="0.05626" cy="215.5798" cx="185.78617" id="rightEye0"/>
    <circle r="0.05626" cy="206.18378" cx="183.75161" id="rightBrow1"/>
    <circle r="0.05626" cy="208.55253" cx="205.29943" id="rightBrow4"/>
    <circle r="0.05626" cy="216.36939" cx="212.60535" id="nose1"/>
    <circle r="0.05626" cy="205.3942" cx="196.2364" id="rightBrow3"/>
    <circle r="0.05626" cy="212.65835" cx="190.59513" id="rightEye1"/>
    <circle r="0.05626" cy="209.10523" cx="180.05242" id="rightBrow0"/>
    <circle r="0.05626" cy="205.3942" cx="189.48537" id="rightBrow2"/>
    <circle r="0.05626" cy="217.39584" cx="190.59513" id="rightEye5"/>
    <circle r="0.05626" cy="212.65835" cx="196.42136" id="rightEye2"/>
    <circle r="0.05626" cy="215.97459" cx="201.23032" id="rightEye3"/>
    <circle r="0.05626" cy="211.78981" cx="212.60535" id="nose0"/>
    <circle r="0.05626" cy="226.31811" cx="212.60535" id="nose3"/>
    <circle r="0.05626" cy="229.87123" cx="202.71" id="rightNose0"/>
    <circle r="0.05626" cy="247.32099" cx="197.1612" id="rightMouthCorner"/>
    <circle r="0.05626" cy="229.87123" cx="207.51895" id="rightNose1"/>
    <circle r="0.05626" cy="244.63641" cx="203.54232" id="rightUpperLipTop0"/>
    <circle r="0.05626" cy="220.71208" cx="212.60535" id="nose2"/>
    <circle r="0.05626" cy="230.5029" cx="212.60535" id="nose4"/>
    <circle r="0.05626" cy="244.47849" cx="213.34519" id="upperLipTopMid"/>
    <circle r="0.05626" cy="243.76787" cx="209.55351" id="rightUpperLipTop1"/>
    <path d="m200.49048,246.9262c0.36992,0 0.73984,0.31583 0.73984,0.63167c0,0.31583 -0.36992,0.63167 -0.73984,0.63167s-0.73984,-0.31583 -0.73984,-0.63167s0.36992,-0.63167 0.73984,-0.63167z" id="rightMiddleLip"/>
    <circle r="0.05626" cy="254.90097" cx="213.34519" id="lowerLipBottomMid"/>
    <circle r="0.05626" cy="247.32099" cx="213.34519" id="upperLipBottomMid"/>
    <circle r="0.05626" cy="249.76869" cx="213.34519" id="lowerLipTopMid"/>
    <circle r="0.05626" cy="246.9262" cx="209.73847" id="rightUpperLipBottom1"/>
    <circle r="0.05626" cy="249.21598" cx="209.73847" id="rightLowerLipTop0"/>
    <circle r="0.05626" cy="254.50618" cx="209.55351" id="rightLowerLipBottom1"/>
    <circle r="0.05626" cy="252.29535" cx="203.07992" id="rightLowerLipBottom0"/>
    <circle r="0.05626" cy="216.76418" cx="196.42136" id="rightEye4"/>
    <circle r="0.05626" cy="275.27218" cx="213.34519" id="jawMid"/>
    <circle r="0.05626" cy="272.74551" cx="199.4732" id="rightJaw7"/>
    <circle r="0.05626" cy="267.45532" cx="190.22521" id="rightJaw6"/>
    <circle r="0.05626" cy="257.58555" cx="179.49754" id="rightJaw5"/>
    <circle r="0.05626" cy="241.79391" cx="173.2089" id="rightJaw4"/>
    <circle r="0.05626" cy="224.65999" cx="172.46906" id="rightJaw3"/>
    <circle r="0.05626" cy="217.15897" cx="172.46906" id="rightJaw2"/>
    <circle r="0.05626" cy="207.92086" cx="173.2089" id="rightJaw1"/>
    <circle r="0.05626" cy="200.57775" cx="175.5209" id="rightJaw0"/>
    <circle r="0.05626" cy="179.96967" cx="213.53015" id="topMid"/>
    <circle r="0.05626" cy="181.94363" cx="231.74869" id="leftTop0"/>
    <circle r="0.05626" cy="189.44465" cx="243.40116" id="leftTop1"/>
    <circle r="0.05626" cy="215.5798" cx="240.9042" id="leftEye0"/>
    <circle r="0.05626" cy="206.49962" cx="242.66132" id="leftBrow1"/>
    <circle r="0.05626" cy="208.15774" cx="220.83606" id="leftBrow4"/>
    <circle r="0.05626" cy="205.63108" cx="230.08405" id="leftBrow3"/>
    <circle r="0.05626" cy="212.65835" cx="236.09525" id="leftEye1"/>
    <circle r="0.05626" cy="208.7894" cx="246.36052" id="leftBrow0"/>
    <circle r="0.05626" cy="205.31524" cx="236.83509" id="leftBrow2"/>
    <circle r="0.05626" cy="217.39584" cx="236.09525" id="leftEye5"/>
    <circle r="0.05626" cy="212.65835" cx="230.26901" id="leftEye2"/>
    <circle r="0.05626" cy="215.97459" cx="225.46006" id="leftEye3"/>
    <circle r="0.05626" cy="229.87123" cx="222.22326" id="leftNose0"/>
    <circle r="0.05626" cy="247.32099" cx="229.52917" id="leftMouthCorner"/>
    <circle r="0.05626" cy="229.87123" cx="217.78422" id="leftNose1"/>
    <circle r="0.05626" cy="244.63641" cx="223.14806" id="leftUpperLipTop0"/>
    <circle r="0.05626" cy="243.76787" cx="217.22934" id="leftUpperLipTop1"/>
    <path d="m226.1999,246.9262c0.36992,0 0.73984,0.31583 0.73984,0.63167c0,0.31583 -0.36992,0.63167 -0.73984,0.63167s-0.73984,-0.31583 -0.73984,-0.63167s0.36992,-0.63167 0.73984,-0.63167z" id="leftMiddleLip"/>
    <circle r="0.05626" cy="246.9262" cx="217.04438" id="leftUpperLipBottom1"/>
    <circle r="0.05626" cy="249.21598" cx="217.04438" id="leftLowerLipTop0"/>
    <circle r="0.05626" cy="254.50618" cx="217.22934" id="leftLowerLipBottom1"/>
    <circle r="0.05626" cy="252.29535" cx="223.61046" id="leftLowerLipBottom0"/>
    <circle r="0.05626" cy="216.76418" cx="230.26901" id="leftEye4"/>
    <circle r="0.05626" cy="273.06135" cx="227.03221" id="leftJaw7"/>
    <circle r="0.05626" cy="267.77115" cx="236.28021" id="leftJaw6"/>
    <circle r="0.05626" cy="257.82242" cx="247.00788" id="leftJaw5"/>
    <circle r="0.05626" cy="242.03079" cx="253.29651" id="leftJaw4"/>
    <circle r="0.05626" cy="224.97583" cx="254.03635" id="leftJaw3"/>
    <circle r="0.05626" cy="217.39584" cx="254.03635" id="leftJaw2"/>
    <circle r="0.05626" cy="208.15774" cx="253.29651" id="leftJaw1"/>
    <circle r="0.05626" cy="200.89359" cx="250.98451" id="leftJaw0"/>
    <circle r="0.05626" cy="181.94363" cx="195.12664" id="rightTop0"/>
    <circle r="0.05626" cy="189.44465" cx="183.47417" id="rightTop1"/>
    <polyline id="svg_8" stroke-miterlimit="10" stroke="#000000" fill="none" points="161.90087907202542,293.5961592356034 118.25917441619094,293.5961592356034 48.86592759413179,331.8345050089283 "/>
    <circle r="0.42148" cy="292.38176" cx="118.38668" id="rightElbow"/>
    <circle r="0.42148" cy="331.22742" cx="48.95092" id="rightWrist"/>
    <polyline id="svg_9" stroke-miterlimit="10" stroke="#000000" fill="none" points="270.0602111816406,293.2870000091534 312.00640869140625,293.2870000091534 378.3806457519531,328.7814646610441 "/>
    <circle r="0.34471" cy="292.17736" cx="311.92509" id="leftElbow"/>
    <circle r="0.34471" cy="327.11751" cx="378.33998" id="leftWrist"/>
</g>
</svg>