<svg width="800" height="600" xmlns="http://www.w3.org/2000/svg">

 <g>
  <title>Layer 1</title>
  <path id="svg_4" fill="#62d46a" d="m317.40218,292.56794c0,0 -73,37 -73,37c0,0 -24,-1 -24,-1c0,0 -11,-4 -11,-5c0,-1 -6,11 -6,11c0,0 7,3 7,3c0,0 -15,4 -15,4c0,0 -6,9 -6,9c0,0 19,1 19,1c0,0 -10,11 -10,11c0,0 17,3 17,3c0,0 -4,12 -4,12c0,0 11,1 11,1c0,0 83,-42 83,-42c0,0 12,-44 12,-44z"/>
  <path id="svg_7" stroke="#396849" fill="#62d46a" d="m340.40218,213.56794c0,0 -77,263 -77,263c0,0 75,6 75,6c0,0 15,0 15,0c0,0 2,-25 1.59782,-25.56794c0.40218,0.56794 35.40218,-0.43206 35.40218,-0.43206c0,0 -1,22 -1,22c0,0 12,0 12,0c0,0 1,-21 1,-21c0,0 36,-5 36,-5c0,0 -1,22 -1,22c0,0 85,-17 85,-17c0,0 -87,-245 -87,-245c0,0 -15,-9 -15,-9c0,0 -24,-35 -24,-35c0,0 8,40 8,40c0,0 -10,5 -10,5c0,0 -15,-4 -15.40218,-4.56794c0.40218,0.56794 -7.59782,-28.43206 -7.59782,-28.43206c0,0 -16,25 -16,25c0,0 -15,8 -15,8z"/>
  <path id="svg_8" stroke="#396849" fill="#62d46a" d="m567.40218,373.56794c0,0 7,-11 7,-11c0,0 8,0 8,0c0,0 7,-6 6.59782,-6.56794c0.40218,0.56794 -8.59782,-8.43206 -9,-9c0.40218,0.56794 12.40218,1.56794 12.40218,1.56794c0,0 3,-12 3,-12c0,0 -19,-2 -19,-2c0,0 6,-10 5.59782,-10.56794c0.40218,0.56794 -8.59782,-4.43206 -9,-5c0.40218,0.56794 -23.59782,4.56794 -23.59782,4.56794c0,0 -89,-39 -89,-39c0,0 20,46 20,46c0,0 87,43 87,43z"/>
  <path transform="translate(400,300)" id="svg_9" fill="white" d="m354.40218,457.56794c0,0 35,0 35,0c0,0 1,86 1,86c0,0 -52,1 -52,1c0,0 4,-12 4,-12c0,0 12,-3 12,-3c0,0 0,-72 0,-72z"  />
  <path id="svg_10" fill="white" d="m437.40218,527.56794c0,0 13,10 13,10c0,0 -13,-10 -13,-10z"  />
  <path id="svg_11" fill="white" d="m354.40218,457.56794c0,0 35,0 35,0c0,0 2,89 2,88c0,-1 -53,-1 -53,-1c0,0 6,-12 6,-12c0,0 11,-4 11,-4c0,0 -1,-71 -1,-71z"  />
  <path id="svg_12" fill="white" d="m402.40218,457.56794c0,0 -1,87 -1,87c0,0 49,-1 49,-2c0,-1 -7,-11 -7,-11c0,0 -8,-6 -8,-6c0,0 2,-72 2,-72c0,0 -35,4 -35,4z"  />
  <path id="svg_13" fill="white" d="m363.40218,130.56794c0,0 -27,-53 -27,-53c0,0 5,-9 5,-9c0,0 12,0 12,0c0,0 -8,-21 -8,-21c0,0 14,-12 15,-13c1,-1 19,9 19,9c0,0 2,17 2,17c0,0 8,-5 8,-5c0,0 9,6 9,6c0,0 7,-12 7,-12c0,0 10,-4 10,-4c0,0 8,8 8,8c0,0 -10,50 -10,50c0,0 29,-20 28,-20c-1,0 11,6 11,6c0,0 3,13 3,13c0,0 -46,22 -46,22c0,0 -1,19 -1,19c0,0 36,54 36,54c0,0 -2,12 -2,12c0,0 -13,1 -13,1c0,0 -27,-44 -27,-44c0,0 1,42 1,42c0,0 -8,5 -8,5c0,0 -18,-4 -18,-4c0,0 -7,-29 -7,-29c0,0 -15,27 -15,27c0,0 -12,4 -12.40218,3.43206c0.40218,0.56794 -7.59782,-0.43206 -8,-1c0.40218,0.56794 -4.59782,-11.43206 -5,-12c0.40218,0.56794 33.40218,-67.43206 33.40218,-67.43206z"/>
  <path id="svg_14" fill="white" d="m407.40218,146.56794c0,0 -49,3 -49,3c0,0 0,-19 0,-19c0,0 52,-1 52,-1c0,0 -3,17 -3,17z"  />
 </g>
</svg>