<svg width="444" height="562" xmlns="http://www.w3.org/2000/svg">
<g id = "illustration">
  <title>Layer 1</title>
  <path id="leftBrow" d="m181.15791,206.36839l5.94736,-0.84208l5,0.52632l7.10526,4.21053l3.94737,-1.57895l-5.26316,-6.05263l-7.10526,-2.36842l-8.15789,0l-4.21053,2.36842l2.73685,3.73681z"  stroke="#000" fill="#000000"/>
  <path id="rightBrow" d="m225.89475,210.31576l-3.26317,-0.57892l-0.78947,-2.36842l6.05263,-6.05263l9.73684,-1.84211l7.36842,1.57895c0.10528,0.0526 1.68422,2.42102 1.68422,2.42102c0,0 -1.57895,2.89474 -1.68422,2.84213c0.10528,0.0526 -5.94736,-0.73687 -6.05263,-0.78947c0.10528,0.0526 -6.21051,0.84208 -6.31579,0.78947c0.10528,0.0526 -10.6842,0.84208 -6.73683,3.99997z"  stroke="#000" fill="#000000"/>
  <ellipse stroke="#000" stroke-width="0" ry="16.31579" rx="16.18421" id="leftEyeb" cy="227.42103" cx="187.86843" fill="#ffffff"/>
  <ellipse stroke="#000" stroke-width="0" ry="16.31579" rx="16.18421" id="rightEyeb" cy="227.15787" cx="237.07896" fill="#ffffff"/>
  <ellipse ry="12.36842" rx="13.02632" id="leftEye" cy="227.15787" cx="190.23685" stroke="#000" fill="#000000"/>
  <ellipse ry="12.36842" rx="13.02632" id="rightEye" cy="227.15787" cx="239.18422" stroke="#000" fill="#000000"/>
  <path id="mouse" d="m201.68422,246.36839c0,0 7.89474,3.94737 7.78946,3.89476c0.10528,0.0526 6.94738,0.0526 6.84211,0c0.10528,0.0526 4.57896,-3.36845 4.47368,-3.42105c0.10528,0.0526 3.26317,1.10524 3.15789,1.05263c0.10528,0.0526 -3.05262,5.31576 -3.15789,5.26316c0.10528,0.05261 -6.21051,1.89471 -6.31579,1.84211c0.10528,0.05261 -8.57893,-1.00003 -8.68421,-1.05263c0.10528,0.05261 -5.15788,-2.05266 -5.26316,-2.10526c0.10528,0.05261 -0.6842,-3.89476 -0.78947,-3.94737c0.10528,0.0526 1.94738,-1.52634 1.94738,-1.52634z"  stroke-width="0" stroke="#000" fill="#000000"/>
  <path id="cap" d="m183.23838,127.0955c0,0 -30.47621,52.85718 -30.85732,52.42843c0.3811,0.42875 2.28587,12.80971 1.90476,12.38096c0.3811,0.42875 17.52397,1.38113 17.14287,0.95238c0.3811,0.42875 24.19064,-36.23795 23.80954,-36.66669c0.3811,0.42875 2.28587,34.71448 1.90476,34.28574c0.3811,0.42875 9.90492,7.09542 9.52382,6.66667c0.3811,0.42875 16.0954,-2.90459 15.7143,-3.33334c0.3811,0.42875 3.71444,-10.52364 3.33334,-10.95239c0.3811,0.42875 -7.23795,-37.19033 -7.61905,-37.61907c0.3811,0.42875 27.04779,44.2383 26.66669,43.80955c0.3811,0.42875 13.71445,3.28589 13.33334,2.85714c0.3811,0.42875 9.42873,-4.80935 9.04763,-5.2381c0.3811,0.42875 0.3811,-8.61888 0,-9.04763c0.3811,0.42875 -39.14273,-49.57129 -39.52384,-50.00004c0.3811,0.42875 1.80968,-18.61889 1.80968,-19.09508c0,-0.47619 46.19051,-23.33335 45.80941,-23.7621c0.3811,0.42875 3.23825,-11.47602 3.23825,-11.95221c0,-0.47619 -9.52382,-6.19048 -9.52382,-6.66667c0,-0.47619 -7.14286,0 -7.52396,-0.42875c0.3811,0.42875 -28.66654,21.85733 -29.04764,21.42859c0.3811,0.42875 14.66683,-47.66652 14.28572,-48.09527c0.3811,0.42875 -1.99985,-8.14269 -2.38095,-8.57143c0.3811,0.42875 -12.95224,-3.38078 -13.33334,-3.80953c0.3811,0.42875 -7.71414,4.71447 -8.09524,4.28572c0.3811,0.42875 -2.47604,9.95256 -2.85714,9.52382c0.3811,0.42875 -4.857,-2.90459 -5.2381,-3.33334c0.3811,0.42875 -4.857,0.42875 -5.2381,0c0.3811,0.42875 -5.80938,5.19066 -6.19048,4.76191c0.3811,0.42875 -4.3808,-17.19031 -4.76191,-17.61906c0.3811,0.42875 -7.71414,-6.23792 -8.09524,-6.66667c0.3811,0.42875 -11.04748,-0.52363 -11.42858,-0.95238c0.3811,0.42875 -7.23795,6.61923 -7.61905,6.19048c0.3811,0.42875 -1.52366,9.95256 -1.90476,9.52382c0.3811,0.42875 4.66682,19.95257 4.28572,19.52382c0.3811,0.42875 -4.3808,-2.4284 -4.76191,-2.85714c0.3811,0.42875 -9.6189,4.71447 -10.00001,4.28572c0.3811,0.42875 -0.57128,9.00018 -0.95238,8.57143c0.3811,0.42875 25.14303,49.4764 25.14303,49.4764c0,0 0,15.7143 0,15.7143z"  stroke-width="0" stroke="#000" fill="#a7ea65"/>
  <path id="capc" d="m183.71457,128.04788c0,0 0,-5.71429 -0.3811,-6.14304c0.3811,0.42875 -0.09509,-6.71412 -0.47619,-7.14286c0.3811,0.42875 6.09539,-4.33316 5.71429,-4.76191c0.3811,0.42875 15.14302,-2.90459 14.76192,-3.33334c0.3811,0.42875 26.09541,2.8097 25.7143,2.38095c0.3811,0.42875 3.23825,7.57161 2.85714,7.14286c0.3811,0.42875 -1.52366,9.95256 -1.90476,9.52382c0.3811,0.42875 -18.66653,-3.38078 -19.04763,-3.80953c0.3811,0.42875 -13.42843,1.38113 -13.80953,0.95238c0.3811,0.42875 -13.42843,5.19065 -13.42843,5.19065z"  stroke-width="0" stroke="#000" fill="#61d46c"/>
  <path id="body" d="m163.71455,194.23841l-76.57163,260.04763l9.04763,6.66667l79.52387,0.95238l0.47619,-22.38097l35.71431,-1.90476l0.47619,22.38097l9.52382,-1.42857l1.90476,-21.42859l33.33336,-3.80953l2.38095,21.90478l79.04768,-13.80953l6.19048,-7.61905l-87.14292,-241.90493l-12.38096,-3.33334l-25.23811,-39.04765l10.4762,44.76194l-7.61905,0.47619l-13.33334,2.85714l-10.4762,-6.19048l-3.33334,-31.90478c0.3811,0.42875 -18.66653,29.47639 -18.66653,29.47639c0,0 -5.71429,4.76191 -6.09539,4.33316c0.3811,0.42875 -3.90461,3.28589 -4.28572,2.85714c0.3811,0.42875 0.3811,-2.90459 0,-3.33334"  stroke-width="0" stroke="#000" fill="#62d46a"/>
  <path id="leftArm" d="m153.23836,270.90513c0,0 -88.57149,39.52384 -88.9526,39.09509c0.38111,0.42874 -21.04748,-0.52364 -21.42859,-0.95238c0.38111,0.42874 -11.52366,-4.33316 -11.90477,-4.76191c0.38111,0.42874 -4.85699,6.61922 -5.2381,6.19048c0.38111,0.42874 7.04778,10.90494 6.66667,10.4762c0.38111,0.42874 -18.19034,0.90493 -18.57144,0.47619c0.38111,0.42874 -0.09508,10.42875 -0.47619,10.00001c0.38111,0.42874 19.90493,2.8097 19.90493,2.33351c0,-0.47619 -12.38096,4.76191 -12.76207,4.33316c0.38111,0.42874 1.33349,7.57161 0.95238,7.14286c0.38111,0.42874 14.66683,0.42874 14.28572,0c0.38111,0.42874 -1.04747,11.38113 -1.42857,10.95239c0.38111,0.42874 8.00016,2.8097 7.61905,2.38095c0.38111,0.42874 38.47637,-16.71413 38.09527,-17.14287c0.38111,0.42874 8.00016,-6.23793 7.61905,-6.66667c0.38111,0.42874 67.04782,-30.04747 66.66671,-30.47621c0.3811,0.42874 -1.04747,-33.3808 -1.04747,-33.3808z"  stroke="#000" fill="#62d46a"/>
  <path id="rightArm" d="m276.09558,264.23846l85.80944,40.04747l23.33335,1.42857l9.52382,-4.76191l7.14286,4.76191l-4.28572,10.00001l14.28572,1.42857l2.38095,10.4762l-9.52382,2.85714l3.33334,5.2381l-2.85714,7.14286l-10.4762,0l1.90476,8.57143l-9.52382,1.90476l-45.71432,-19.52382l-7.61905,-7.14286l-55.23813,-25.23811l-2.47604,-37.19033z"  stroke="#000" fill="#62d46a"/>
  <path id="leftFoot" d="m177.0479,439.47667l-1.33349,69.57131l-10.00001,2.85714l-4.76191,12.38096l50.95242,0.47619l-0.95238,-86.66673l-33.90463,1.38112z"  stroke-width="0" stroke="#000" fill="#f4d272"/>
  <path id="rightFoot" d="m223.71459,437.09572l33.90464,-3.28589l0.47619,73.33339l13.33334,6.66667l0.47619,10.00001l-48.57146,0.47619l0.3811,-87.19037z"  stroke-width="0" stroke="#000" fill="#f4d272"/>
</g>
<g id="skeleton_1_">
	<polygon style="fill:none;stroke:#000000;stroke-miterlimit:10;" points="518.8,349.5 569.1,565.3 685.5,564.5 731.7,349.5 	"/>
	<polyline style="fill:none;stroke:#000000;stroke-miterlimit:10;" points="517.8,349.5 415.1,349.5 251.8,355.8 	"/>
	<polyline style="fill:none;stroke:#000000;stroke-miterlimit:10;" points="733.2,349.1 836.4,349.1 999.7,355.5 	"/>
	<polyline style="fill:none;stroke:#000000;stroke-miterlimit:10;" points="569.1,565.3 575.5,725.5 575.5,933.5 	"/>
	<polyline style="fill:none;stroke:#000000;stroke-miterlimit:10;" points="685.5,564.5 685.5,725.5 685.5,933.5 	"/>
	<polyline style="fill:none;stroke:#000000;stroke-miterlimit:10;" points="624.5,170 604.7,172.5 592.2,182 583.6,196.1 
		581.1,205.4 580.3,217.1 580.3,226.6 581.1,248.3 587.9,268.3 599.5,280.8 609.5,287.5 624.5,290.7 639.3,287.9 649.3,281.2 
		660.9,268.6 667.7,248.6 668.5,227 668.5,217.4 667.7,205.7 665.2,196.5 657,182 644.4,172.5 624.5,170 	"/>
	<polyline style="fill:none;stroke:#000000;stroke-miterlimit:10;" points="588.5,206.9 592.5,203.2 598.7,202.2 606,202.2 
		615.8,206.2 	"/>
	<polygon style="fill:none;stroke:#000000;stroke-miterlimit:10;" points="594.7,215.1 599.9,211.4 606.2,211.4 611.4,215.6 
		606.2,216.6 599.9,217.4 	"/>
	<polyline style="fill:none;stroke:#000000;stroke-miterlimit:10;" points="613,233.2 618.2,233.2 623.7,234 623.7,228.7 
		623.7,221.6 623.7,216.1 623.7,210.3 	"/>
	<polyline style="fill:none;stroke:#000000;stroke-miterlimit:10;" points="660,206.5 656,203.6 649.7,202.1 642.4,202.5 
		632.4,205.7 	"/>
	<polygon style="fill:none;stroke:#000000;stroke-miterlimit:10;" points="654.1,215.1 648.8,211.4 642.5,211.4 637.4,215.6 
		642.5,216.6 648.8,217.4 	"/>
	<polyline style="fill:none;stroke:#000000;stroke-miterlimit:10;" points="634.1,233.2 629.1,233.2 623.7,234 	"/>
	<polygon style="fill:none;stroke:#000000;stroke-miterlimit:10;" points="607,255.3 613.9,251.9 620.4,250.8 624.5,251.7 
		628.7,250.8 635.1,251.9 642,255.3 635.6,261.6 628.5,264.4 624.5,264.9 620.4,264.4 613.4,261.6 	"/>
	<polyline style="fill:none;stroke:#000000;stroke-miterlimit:10;" points="607,255.3 610.6,255.6 620.6,254.8 624.5,255.3 
		628.5,254.8 638.4,255.6 642,255.3 	"/>
	<polyline style="fill:none;stroke:#000000;stroke-miterlimit:10;" points="607,255.3 610.6,255.6 620.6,257.7 624.5,258.5 
		628.5,257.7 638.4,255.6 642,255.3 	"/>
	<circle id="rightShoulder" cx="518.9" cy="349.2" r="8.2"/>
	<circle id="rightElbow" cx="415.4" cy="349.3" r="8.2"/>
	<circle id="rightWrist" cx="252" cy="355.7" r="8.2"/>
	<circle id="rightHip" cx="569.2" cy="565" r="8.2"/>
	<circle id="rightKnee" cx="575.6" cy="725.2" r="8.2"/>
	<circle id="rightAnkle" cx="575.6" cy="933.2" r="8.2"/>
	<circle id="leftElbow" cx="836.2" cy="348.9" r="8.2"/>
	<circle id="leftWrist" cx="999.6" cy="355.2" r="8.2"/>
	<circle id="leftHip" cx="685.6" cy="564.2" r="8.2"/>
	<circle id="leftKnee" cx="685.6" cy="725.2" r="8.2"/>
	<circle id="leftAnkle" cx="685.6" cy="933.2" r="8.2"/>
	<circle id="rightEye0" cx="594.7" cy="215.1" r="0.8"/>
	<circle id="rightBrow1" cx="592.5" cy="203.2" r="0.8"/>
	<circle id="rightBrow4" cx="615.8" cy="206.2" r="0.8"/>
	<circle id="nose1" cx="623.7" cy="216.1" r="0.8"/>
	<circle id="rightBrow3" cx="606" cy="202.2" r="0.8"/>
	<circle id="rightEye1" cx="599.9" cy="211.4" r="0.8"/>
	<circle id="rightBrow0" cx="588.5" cy="206.9" r="0.8"/>
	<circle id="rightBrow2" cx="598.7" cy="202.2" r="0.8"/>
	<circle id="rightEye5" cx="599.9" cy="217.4" r="0.8"/>
	<circle id="rightEye2" cx="606.2" cy="211.4" r="0.8"/>
	<circle id="rightEye3" cx="611.4" cy="215.6" r="0.8"/>
	<circle id="nose0" cx="623.7" cy="210.3" r="0.8"/>
	<circle id="nose3" cx="623.7" cy="228.7" r="0.8"/>
	<circle id="rightNose0" cx="613" cy="233.2" r="0.8"/>
	<circle id="rightMouthCorner" cx="607" cy="255.3" r="0.8"/>
	<circle id="rightNose1" cx="618.2" cy="233.2" r="0.8"/>
	<circle id="rightUpperLipTop0" cx="613.9" cy="251.9" r="0.8"/>
	<circle id="nose2" cx="623.7" cy="221.6" r="0.8"/>
	<circle id="nose4" cx="623.7" cy="234" r="0.8"/>
	<circle id="upperLipTopMid" cx="624.5" cy="251.7" r="0.8"/>
	<circle id="rightUpperLipTop1" cx="620.4" cy="250.8" r="0.8"/>
	<path id="rightMiddleLip" d="M610.6,254.8c0.4,0,0.8,0.4,0.8,0.8c0,0.4-0.4,0.8-0.8,0.8s-0.8-0.4-0.8-0.8S610.2,254.8,610.6,254.8z
		"/>
	<circle id="lowerLipBottomMid" cx="624.5" cy="264.9" r="0.8"/>
	<circle id="upperLipBottomMid" cx="624.5" cy="255.3" r="0.8"/>
	<circle id="lowerLipTopMid" cx="624.5" cy="258.4" r="0.8"/>
	<circle id="rightUpperLipBottom1" cx="620.6" cy="254.8" r="0.8"/>
	<circle id="rightLowerLipTop0" cx="620.6" cy="257.7" r="0.8"/>
	<circle id="rightLowerLipBottom1" cx="620.4" cy="264.4" r="0.8"/>
	<circle id="rightLowerLipBottom0" cx="613.4" cy="261.6" r="0.8"/>
	<circle id="rightEye4" cx="606.2" cy="216.6" r="0.8"/>
	<circle id="jawMid" cx="624.5" cy="290.7" r="0.8"/>
	<circle id="rightJaw7" cx="609.5" cy="287.5" r="0.8"/>
	<circle id="rightJaw6" cx="599.5" cy="280.8" r="0.8"/>
	<circle id="rightJaw5" cx="587.9" cy="268.3" r="0.8"/>
	<circle id="rightJaw4" cx="581.1" cy="248.3" r="0.8"/>
	<circle id="rightJaw3" cx="580.3" cy="226.6" r="0.8"/>
	<circle id="rightJaw2" cx="580.3" cy="217.1" r="0.8"/>
	<circle id="rightJaw1" cx="581.1" cy="205.4" r="0.8"/>
	<circle id="rightJaw0" cx="583.6" cy="196.1" r="0.8"/>
	<circle id="topMid" cx="624.7" cy="170" r="0.8"/>
	<circle id="leftTop0" cx="644.4" cy="172.5" r="0.8"/>
	<circle id="leftTop1" cx="657" cy="182" r="0.8"/>
	<circle id="leftEye0" cx="654.3" cy="215.1" r="0.8"/>
	<circle id="leftBrow1" cx="656.2" cy="203.6" r="0.8"/>
	<circle id="leftBrow4" cx="632.6" cy="205.7" r="0.8"/>
	<circle id="leftBrow3" cx="642.6" cy="202.5" r="0.8"/>
	<circle id="leftEye1" cx="649.1" cy="211.4" r="0.8"/>
	<circle id="leftBrow0" cx="660.2" cy="206.5" r="0.8"/>
	<circle id="leftBrow2" cx="649.9" cy="202.1" r="0.8"/>
	<circle id="leftEye5" cx="649.1" cy="217.4" r="0.8"/>
	<circle id="leftEye2" cx="642.8" cy="211.4" r="0.8"/>
	<circle id="leftEye3" cx="637.6" cy="215.6" r="0.8"/>
	<circle id="leftNose0" cx="634.1" cy="233.2" r="0.8"/>
	<circle id="leftMouthCorner" cx="642" cy="255.3" r="0.8"/>
	<circle id="leftNose1" cx="629.3" cy="233.2" r="0.8"/>
	<circle id="leftUpperLipTop0" cx="635.1" cy="251.9" r="0.8"/>
	<circle id="leftUpperLipTop1" cx="628.7" cy="250.8" r="0.8"/>
	<path id="leftMiddleLip" d="M638.4,254.8c0.4,0,0.8,0.4,0.8,0.8c0,0.4-0.4,0.8-0.8,0.8s-0.8-0.4-0.8-0.8S638,254.8,638.4,254.8z"/>
	<circle id="leftUpperLipBottom1" cx="628.5" cy="254.8" r="0.8"/>
	<circle id="leftLowerLipTop0" cx="628.5" cy="257.7" r="0.8"/>
	<circle id="leftLowerLipBottom1" cx="628.7" cy="264.4" r="0.8"/>
	<circle id="leftLowerLipBottom0" cx="635.6" cy="261.6" r="0.8"/>
	<circle id="leftEye4" cx="642.8" cy="216.6" r="0.8"/>
	<circle id="leftJaw7" cx="639.3" cy="287.9" r="0.8"/>
	<circle id="leftJaw6" cx="649.3" cy="281.2" r="0.8"/>
	<circle id="leftJaw5" cx="660.9" cy="268.6" r="0.8"/>
	<circle id="leftJaw4" cx="667.7" cy="248.6" r="0.8"/>
	<circle id="leftJaw3" cx="668.5" cy="227" r="0.8"/>
	<circle id="leftJaw2" cx="668.5" cy="217.4" r="0.8"/>
	<circle id="leftJaw1" cx="667.7" cy="205.7" r="0.8"/>
	<circle id="leftJaw0" cx="665.2" cy="196.5" r="0.8"/>
	<circle id="rightTop0" cx="604.8" cy="172.5" r="0.8"/>
	<circle id="rightTop1" cx="592.2" cy="182" r="0.8"/>
	<circle id="leftShoulder" cx="731.8" cy="349.2" r="8.2"/>
</g>
</svg>