<svg width="444.00000000000006" height="562" xmlns="http://www.w3.org/2000/svg">
 <g id="illustration">
  <path fill="#a7ea65" stroke="#000" stroke-width="0" d="m183.23838,127.0955c0,0 -30.47621,52.85718 -30.85732,52.42843c0.3811,0.42875 2.28587,12.80971 1.90476,12.38096c0.3811,0.42875 17.52397,1.38113 17.14287,0.95238c0.3811,0.42875 24.19064,-36.23795 23.80954,-36.66669c0.3811,0.42875 2.28587,34.71448 1.90476,34.28574c0.3811,0.42875 9.90492,7.09542 9.52382,6.66667c0.3811,0.42875 16.0954,-2.90459 15.7143,-3.33334c0.3811,0.42875 3.71444,-10.52364 3.33334,-10.95239c0.3811,0.42875 -7.23795,-37.19033 -7.61905,-37.61907c0.3811,0.42875 27.04779,44.2383 26.66669,43.80955c0.3811,0.42875 13.71445,3.28589 13.33334,2.85714c0.3811,0.42875 9.42873,-4.80935 9.04763,-5.2381c0.3811,0.42875 0.3811,-8.61888 0,-9.04763c0.3811,0.42875 -39.14273,-49.57129 -39.52384,-50.00004c0.3811,0.42875 1.80968,-18.61889 1.80968,-19.09508c0,-0.47619 46.19051,-23.33335 45.80941,-23.7621c0.3811,0.42875 3.23825,-11.47602 3.23825,-11.95221c0,-0.47619 -9.52382,-6.19048 -9.52382,-6.66667c0,-0.47619 -7.14286,0 -7.52396,-0.42875c0.3811,0.42875 -28.66654,21.85733 -29.04764,21.42859c0.3811,0.42875 14.66683,-47.66652 14.28572,-48.09527c0.3811,0.42875 -1.99985,-8.14269 -2.38095,-8.57143c0.3811,0.42875 -12.95224,-3.38078 -13.33334,-3.80953c0.3811,0.42875 -7.71414,4.71447 -8.09524,4.28572c0.3811,0.42875 -2.47604,9.95256 -2.85714,9.52382c0.3811,0.42875 -4.857,-2.90459 -5.2381,-3.33334c0.3811,0.42875 -4.857,0.42875 -5.2381,0c0.3811,0.42875 -5.80938,5.19066 -6.19048,4.76191c0.3811,0.42875 -4.3808,-17.19031 -4.76191,-17.61906c0.3811,0.42875 -7.71414,-6.23792 -8.09524,-6.66667c0.3811,0.42875 -11.04748,-0.52363 -11.42858,-0.95238c0.3811,0.42875 -7.23795,6.61923 -7.61905,6.19048c0.3811,0.42875 -1.52366,9.95256 -1.90476,9.52382c0.3811,0.42875 4.66682,19.95257 4.28572,19.52382c0.3811,0.42875 -4.3808,-2.4284 -4.76191,-2.85714c0.3811,0.42875 -9.6189,4.71447 -10.00001,4.28572c0.3811,0.42875 -0.57128,9.00018 -0.95238,8.57143c0.3811,0.42875 25.14303,49.4764 25.14303,49.4764c0,0 0,15.7143 0,15.7143l-0.00004,0.00001z" id="cap"/>
  <path fill="#61d46c" stroke="#000" stroke-width="0" d="m183.71457,128.04788c0,0 0,-5.71429 -0.3811,-6.14304c0.3811,0.42875 -0.09509,-6.71412 -0.47619,-7.14286c0.3811,0.42875 6.09539,-4.33316 5.71429,-4.76191c0.3811,0.42875 15.14302,-2.90459 14.76192,-3.33334c0.3811,0.42875 26.09541,2.8097 25.7143,2.38095c0.3811,0.42875 3.23825,7.57161 2.85714,7.14286c0.3811,0.42875 -1.52366,9.95256 -1.90476,9.52382c0.3811,0.42875 -18.66653,-3.38078 -19.04763,-3.80953c0.3811,0.42875 -13.42843,1.38113 -13.80953,0.95238c0.3811,0.42875 -13.42843,5.19065 -13.42843,5.19065l-0.00001,0.00002z" id="capc"/>
  <path fill="#62d46a" stroke="#000" d="m153.23836,270.90513c0,0 -88.57149,39.52384 -88.9526,39.09509c0.38111,0.42874 -21.04748,-0.52364 -21.42859,-0.95238c0.38111,0.42874 -11.52366,-4.33316 -11.90477,-4.76191c0.38111,0.42874 -4.85699,6.61922 -5.2381,6.19048c0.38111,0.42874 7.04778,10.90494 6.66667,10.4762c0.38111,0.42874 -18.19034,0.90493 -18.57144,0.47619c0.38111,0.42874 -0.09508,10.42875 -0.47619,10.00001c0.38111,0.42874 19.90493,2.8097 19.90493,2.33351c0,-0.47619 -12.38096,4.76191 -12.76207,4.33316c0.38111,0.42874 1.33349,7.57161 0.95238,7.14286c0.38111,0.42874 14.66683,0.42874 14.28572,0c0.38111,0.42874 -1.04747,11.38113 -1.42857,10.95239c0.38111,0.42874 8.00016,2.8097 7.61905,2.38095c0.38111,0.42874 38.47637,-16.71413 38.09527,-17.14287c0.38111,0.42874 8.00016,-6.23793 7.61905,-6.66667c0.38111,0.42874 67.04782,-30.04747 66.66671,-30.47621c0.3811,0.42874 -1.04747,-33.3808 -1.04747,-33.3808l0.00002,0z" id="leftArm"/>
  <path fill="#62d46a" stroke="#000" d="m276.09558,264.23846l85.80944,40.04747l23.33335,1.42857l9.52382,-4.76191l7.14286,4.76191l-4.28572,10.00001l14.28572,1.42857l2.38095,10.4762l-9.52382,2.85714l3.33334,5.2381l-2.85714,7.14286l-10.4762,0l1.90476,8.57143l-9.52382,1.90476l-45.71432,-19.52382l-7.61905,-7.14286l-55.23813,-25.23811l-2.47604,-37.19033l0,0.00001z" id="rightArm"/>
  <path fill="#62d46a" stroke="#000" stroke-width="0" d="m163.71455,194.23841l-76.57163,260.04763l9.04763,6.66667l79.52387,0.95238l0.47619,-22.38097l35.71431,-1.90476l0.47619,22.38097l9.52382,-1.42857l1.90476,-21.42859l33.33336,-3.80953l2.38095,21.90478l79.04768,-13.80953l6.19048,-7.61905l-87.14292,-241.90493l-12.38096,-3.33334l-25.23811,-39.04765l10.4762,44.76194l-7.61905,0.47619l-13.33334,2.85714l-10.4762,-6.19048l-3.33334,-31.90478c0.3811,0.42875 -18.66653,29.47639 -18.66653,29.47639c0,0 -5.71429,4.76191 -6.09539,4.33316c0.3811,0.42875 -3.90461,3.28589 -4.28572,2.85714c0.3811,0.42875 0.3811,-2.90459 0,-3.33334" id="body"/>
  <path fill="#000000" stroke="#000" d="m181.15791,206.36839l5.94736,-0.84208l5,0.52632l7.10526,4.21053l3.94737,-1.57895l-5.26316,-6.05263l-7.10526,-2.36842l-8.15789,0l-4.21053,2.36842l2.73685,3.73681z" id="leftBrow"/>
  <path fill="#000000" stroke="#000" d="m225.89475,210.31576l-3.26317,-0.57892l-0.78947,-2.36842l6.05263,-6.05263l9.73684,-1.84211l7.36842,1.57895c0.10528,0.0526 1.68422,2.42102 1.68422,2.42102c0,0 -1.57895,2.89474 -1.68422,2.84213c0.10528,0.0526 -5.94736,-0.73687 -6.05263,-0.78947c0.10528,0.0526 -6.21051,0.84208 -6.31579,0.78947c0.10528,0.0526 -10.6842,0.84208 -6.73683,3.99997l0,0.00001z" id="rightBrow"/>
  <ellipse fill="#ffffff" cx="187.86843" cy="227.42103" id="leftEyeb" rx="16.18421" ry="16.31579" stroke-width="0" stroke="#000"/>
  <ellipse fill="#ffffff" cx="237.07896" cy="227.15787" id="rightEyeb" rx="16.18421" ry="16.31579" stroke-width="0" stroke="#000"/>
  <ellipse fill="#000000" stroke="#000" cx="190.23685" cy="227.15787" id="leftEye" rx="13.02632" ry="12.36842"/>
  <ellipse fill="#000000" stroke="#000" cx="239.18422" cy="227.15787" id="rightEye" rx="13.02632" ry="12.36842"/>
  <path fill="#000000" stroke="#000" stroke-width="0" d="m201.68422,246.36839c0,0 7.89474,3.94737 7.78946,3.89476c0.10528,0.0526 6.94738,0.0526 6.84211,0c0.10528,0.0526 4.57896,-3.36845 4.47368,-3.42105c0.10528,0.0526 3.26317,1.10524 3.15789,1.05263c0.10528,0.0526 -3.05262,5.31576 -3.15789,5.26316c0.10528,0.05261 -6.21051,1.89471 -6.31579,1.84211c0.10528,0.05261 -8.57893,-1.00003 -8.68421,-1.05263c0.10528,0.05261 -5.15788,-2.05266 -5.26316,-2.10526c0.10528,0.05261 -0.6842,-3.89476 -0.78947,-3.94737c0.10528,0.0526 1.94738,-1.52634 1.94738,-1.52634l0,-0.00001z" id="mouse"/>
  <path fill="#f4d272" stroke="#000" stroke-width="0" d="m177.0479,439.47667l-1.33349,69.57131l-10.00001,2.85714l-4.76191,12.38096l50.95242,0.47619l-0.95238,-86.66673l-33.90463,1.38112l0,0.00001z" id="leftFoot"/>
  <path fill="#f4d272" stroke="#000" stroke-width="0" d="m223.71459,437.09572l33.90464,-3.28589l0.47619,73.33339l13.33334,6.66667l0.47619,10.00001l-48.57146,0.47619l0.3811,-87.19037z" id="rightFoot"/>
 </g>
 <g>
  <g id="skeleton_1_">
   <polygon stroke="#000000" id="svg_1" stroke-miterlimit="10" fill="none" points="156.56468200683594,288.3880114901858 182.5304412841797,373.19540184387006 242.61817932128906,372.8809816360099 266.4674377441406,288.3880114901858 "/>
   <polyline stroke="#000000" id="svg_4" stroke-miterlimit="10" fill="none" points="182.5304412841797,373.19540184387006 185.83424377441406,436.15249952232625 185.83424377441406,517.8945874304482 "/>
   <polyline stroke="#000000" id="svg_5" stroke-miterlimit="10" fill="none" points="242.61817932128906,372.8809816360099 242.61817932128906,436.15249952232625 242.61817932128906,517.8945874304482 "/>
   <circle  r="1.02075" cy="288.2701" cx="156.61632" id="rightShoulder"/>
   <circle  r="1.02075" cy="373.0775" cx="182.58207" id="rightHip"/>
   <circle  r="1.02075" cy="436.03461" cx="185.88586" id="rightKnee"/>
   <circle  r="1.02077" cy="517.77667" cx="185.88586" id="rightAnkle"/>
   <circle  r="1.02075" cy="372.7631" cx="242.66981" id="leftHip"/>
   <circle  r="1.02075" cy="436.03461" cx="242.66981" id="leftKnee"/>
   <circle  r="1.02077" cy="517.77667" cx="242.66981" id="leftAnkle"/>
   <circle  r="1.02075" cy="288.2701" cx="266.51907" id="leftShoulder"/>
   <polyline stroke="#000000" id="svg_6" stroke-miterlimit="10" fill="none" points="212.67741689793002,178.94296264648438 192.84227763545277,180.97775268554688 180.32007866544336,188.71002197265625 171.70481970860055,200.1863250732422 169.200280838857,207.75579833984375 168.39891788830573,217.27870178222656 168.39891788830573,225.01095581054688 169.200280838857,242.67306518554688 176.01247315695946,258.9515380859375 187.6330189579112,269.12548828125 197.6507909178854,274.578857421875 212.67741689793002,277.1833801269531 227.50375008021183,274.9043884277344 237.52149008026936,269.4511413574219 249.14209980105443,259.1956787109375 255.95419623940688,242.917236328125 256.7555911498748,225.3365020751953 256.7555911498748,217.52285766601562 255.95419623940688,208.00001525878906 253.44981716924667,200.51194763183594 245.2351438079295,188.71002197265625 232.612814418997,180.97775268554688 212.67741689793002,178.94296264648438 "/>
   <polyline stroke="#000000" id="svg_7" stroke-miterlimit="10" fill="none" points="176.61352732978958,208.97666931152344 180.6206616817126,205.96517944335938 186.8316400274016,205.15126037597656 194.14454835995275,205.15126037597656 203.9619636023308,208.40696716308594 "/>
   <polygon stroke="#000000" id="svg_8" stroke-miterlimit="10" fill="none" points="182.82445773560357,215.65086364746094 188.03374837306183,212.6393280029297 194.3449050775489,212.6393280029297 199.55416375509049,216.05783081054688 194.3449050775489,216.87176513671875 188.03374837306183,217.52285766601562 "/>
   <polyline stroke="#000000" id="svg_9" stroke-miterlimit="10" fill="none" points="201.15703347581803,230.38284301757812 206.36626019344294,230.38284301757812 211.87605394737875,231.0339813232422 211.87605394737875,226.72018432617188 211.87605394737875,220.94139099121094 211.87605394737875,216.4647674560547 211.87605394737875,211.74403381347656 "/>
   <polyline stroke="#000000" id="svg_10" stroke-miterlimit="10" fill="none" points="248.24057447166342,208.65109252929688 244.2334401197404,206.29078674316406 237.92221949542,205.0698699951172 230.60931116286883,205.3954315185547 220.59155518285297,208.00001525878906 "/>
   <polygon stroke="#000000" id="svg_11" stroke-miterlimit="10" fill="none" points="242.33003532261864,215.65086364746094 237.0205663263623,212.6393280029297 230.70942560183357,212.6393280029297 225.60042518288174,216.05783081054688 230.70942560183357,216.87176513671875 237.0205663263623,217.52285766601562 "/>
   <polyline stroke="#000000" id="svg_12" stroke-miterlimit="10" fill="none" points="222.29449140267025,230.38284301757812 217.28560542268315,230.38284301757812 211.87605394737875,231.0339813232422 "/>
   <polygon stroke="#000000" id="svg_13" stroke-miterlimit="10" fill="none" points="195.14639586776684,248.37051391601562 202.0586387050007,245.60317993164062 208.57021604691727,244.70785522460938 212.67741689793002,245.4403839111328 216.88492394740751,244.70785522460938 223.29633891048434,245.60317993164062 230.20856576775986,248.37051391601562 223.79711884476637,253.4982452392578 216.68459918972803,255.77719116210938 212.67741689793002,256.1841735839844 208.57021604691727,255.77719116210938 201.557778870927,253.4982452392578 "/>
   <polyline stroke="#000000" id="svg_14" stroke-miterlimit="10" fill="none" points="195.14639586776684,248.37051391601562 198.7527049247892,248.6147003173828 208.77044492484674,247.9635772705078 212.67741689793002,248.37051391601562 216.68459918972803,247.9635772705078 226.60217681094582,248.6147003173828 230.20856576775986,248.37051391601562 "/>
   <polyline stroke="#000000" id="svg_15" stroke-miterlimit="10" fill="none" points="195.14639586776684,248.37051391601562 198.7527049247892,248.6147003173828 208.77044492484674,250.32394409179688 212.67741689793002,250.97509765625 216.68459918972803,250.32394409179688 226.60217681094582,248.6147003173828 230.20856576775986,248.37051391601562 "/>
   <circle  r="0.13224" cy="215.65085" cx="182.82453" id="rightEye0"/>
   <circle  r="0.13224" cy="205.96518" cx="180.62063" id="rightBrow1"/>
   <circle  r="0.13224" cy="208.40695" cx="203.96201" id="rightBrow4"/>
   <circle  r="0.13224" cy="216.46478" cx="211.87605" id="nose1"/>
   <circle  r="0.13224" cy="205.15126" cx="194.14461" id="rightBrow3"/>
   <circle  r="0.13224" cy="212.63934" cx="188.03377" id="rightEye1"/>
   <circle  r="0.13224" cy="208.97669" cx="176.61352" id="rightBrow0"/>
   <circle  r="0.13224" cy="205.15126" cx="186.83164" id="rightBrow2"/>
   <circle  r="0.13224" cy="217.52287" cx="188.03377" id="rightEye5"/>
   <circle  r="0.13224" cy="212.63934" cx="194.34496" id="rightEye2"/>
   <circle  r="0.13224" cy="216.05781" cx="199.5542" id="rightEye3"/>
   <circle  r="0.13224" cy="211.74403" cx="211.87605" id="nose0"/>
   <circle  r="0.13224" cy="226.72019" cx="211.87605" id="nose3"/>
   <circle  r="0.13224" cy="230.38284" cx="201.15704" id="rightNose0"/>
   <circle  r="0.13224" cy="248.37052" cx="195.14638" id="rightMouthCorner"/>
   <circle  r="0.13224" cy="230.38284" cx="206.36628" id="rightNose1"/>
   <circle  r="0.13224" cy="245.60319" cx="202.05864" id="rightUpperLipTop0"/>
   <circle  r="0.13224" cy="220.94135" cx="211.87605" id="nose2"/>
   <circle  r="0.13224" cy="231.03398" cx="211.87605" id="nose4"/>
   <circle  r="0.13224" cy="245.4404" cx="212.67747" id="upperLipTopMid"/>
   <circle  r="0.13224" cy="244.70787" cx="208.57019" id="rightUpperLipTop1"/>
   <path  d="m198.75278,247.96356c0.40071,0 0.80142,0.32557 0.80142,0.65114c0,0.32557 -0.40071,0.65114 -0.80142,0.65114s-0.80142,-0.32557 -0.80142,-0.65114s0.40071,-0.65114 0.80142,-0.65114z" id="rightMiddleLip"/>
   <circle  r="0.13225" cy="256.18417" cx="212.67747" id="lowerLipBottomMid"/>
   <circle  r="0.13224" cy="248.37052" cx="212.67747" id="upperLipBottomMid"/>
   <circle  r="0.13224" cy="250.89368" cx="212.67747" id="lowerLipTopMid"/>
   <circle  r="0.13224" cy="247.96356" cx="208.77054" id="rightUpperLipBottom1"/>
   <circle  r="0.13224" cy="250.32393" cx="208.77054" id="rightLowerLipTop0"/>
   <circle  r="0.13226" cy="255.77721" cx="208.57019" id="rightLowerLipBottom1"/>
   <circle  r="0.13224" cy="253.49823" cx="201.55775" id="rightLowerLipBottom0"/>
   <circle  r="0.13224" cy="216.87174" cx="194.34496" id="rightEye4"/>
   <circle  r="0.13225" cy="277.18336" cx="212.67747" id="jawMid"/>
   <circle  r="0.13225" cy="274.57881" cx="197.65082" id="rightJaw7"/>
   <circle  r="0.13225" cy="269.12553" cx="187.63306" id="rightJaw6"/>
   <circle  r="0.13225" cy="258.95151" cx="176.01245" id="rightJaw5"/>
   <circle  r="0.13224" cy="242.67307" cx="169.20038" id="rightJaw4"/>
   <circle  r="0.13224" cy="225.01096" cx="168.39895" id="rightJaw3"/>
   <circle  r="0.13224" cy="217.2787" cx="168.39895" id="rightJaw2"/>
   <circle  r="0.13224" cy="207.75581" cx="169.20038" id="rightJaw1"/>
   <circle  r="0.13224" cy="200.18633" cx="171.70482" id="rightJaw0"/>
   <circle  r="0.13226" cy="178.94297" cx="212.87782" id="topMid"/>
   <circle  r="0.13226" cy="180.97777" cx="232.61282" id="leftTop0"/>
   <circle  r="0.13224" cy="188.71003" cx="245.2352" id="leftTop1"/>
   <circle  r="0.13224" cy="215.65085" cx="242.5304" id="leftEye0"/>
   <circle  r="0.13224" cy="206.29075" cx="244.43378" id="leftBrow1"/>
   <circle  r="0.13224" cy="207.99999" cx="220.79186" id="leftBrow4"/>
   <circle  r="0.13224" cy="205.39544" cx="230.80962" id="leftBrow3"/>
   <circle  r="0.13224" cy="212.63934" cx="237.32117" id="leftEye1"/>
   <circle  r="0.13224" cy="208.65112" cx="248.44088" id="leftBrow0"/>
   <circle  r="0.13224" cy="205.06987" cx="238.12259" id="leftBrow2"/>
   <circle  r="0.13224" cy="217.52287" cx="237.32117" id="leftEye5"/>
   <circle  r="0.13224" cy="212.63934" cx="231.00998" id="leftEye2"/>
   <circle  r="0.13224" cy="216.05781" cx="225.80074" id="leftEye3"/>
   <circle  r="0.13224" cy="230.38284" cx="222.29452" id="leftNose0"/>
   <circle  r="0.13224" cy="248.37052" cx="230.20855" id="leftMouthCorner"/>
   <circle  r="0.13224" cy="230.38284" cx="217.48599" id="leftNose1"/>
   <circle  r="0.13224" cy="245.60319" cx="223.2963" id="leftUpperLipTop0"/>
   <circle  r="0.13224" cy="244.70787" cx="216.88493" id="leftUpperLipTop1"/>
   <path  d="m226.60216,247.96356c0.40071,0 0.80142,0.32557 0.80142,0.65114c0,0.32557 -0.40071,0.65114 -0.80142,0.65114s-0.80142,-0.32557 -0.80142,-0.65114s0.40071,-0.65114 0.80142,-0.65114z" id="leftMiddleLip"/>
   <circle  r="0.13224" cy="247.96356" cx="216.68457" id="leftUpperLipBottom1"/>
   <circle  r="0.13224" cy="250.32393" cx="216.68457" id="leftLowerLipTop0"/>
   <circle  r="0.13226" cy="255.77721" cx="216.88493" id="leftLowerLipBottom1"/>
   <circle  r="0.13224" cy="253.49823" cx="223.79719" id="leftLowerLipBottom0"/>
   <circle  r="0.13224" cy="216.87174" cx="231.00998" id="leftEye4"/>
   <circle  r="0.13225" cy="274.90438" cx="227.50376" id="leftJaw7"/>
   <circle  r="0.13225" cy="269.4511" cx="237.52152" id="leftJaw6"/>
   <circle  r="0.13225" cy="259.19569" cx="249.14213" id="leftJaw5"/>
   <circle  r="0.13224" cy="242.91724" cx="255.95421" id="leftJaw4"/>
   <circle  r="0.13224" cy="225.33653" cx="256.75563" id="leftJaw3"/>
   <circle  r="0.13224" cy="217.52287" cx="256.75563" id="leftJaw2"/>
   <circle  r="0.13224" cy="207.99999" cx="255.95421" id="leftJaw1"/>
   <circle  r="0.13224" cy="200.5119" cx="253.44976" id="leftJaw0"/>
   <circle  r="0.13226" cy="180.97777" cx="192.94247" id="rightTop0"/>
   <circle  r="0.13224" cy="188.71003" cx="180.32009" id="rightTop1"/>
   <circle  r="0.68741" cy="303.14257" cx="105.35445" id="rightElbow"/>
   <g transform="rotate(-17.29 93.9475 314.918)"  id="svg_17">
    <polyline stroke="#000000" id="svg_2" stroke-miterlimit="10" fill="none" points="162.5632197856903,308.37605142593384 109.93117785453796,308.37605142593384 26.242666959762573,321.2960343360901 "/>
    <circle  r="0.36961" cy="321.09104" cx="26.34517" id="rightWrist"/>
   </g>
   <g transform="rotate(13.4495 329.957 314.703)"  id="svg_19">
    <polyline stroke="#000000" id="svg_3" stroke-miterlimit="10" fill="none" points="260.91812777519226,303.6203457862139 314.1918399333954,303.6203457862139 398.49011874198914,327.3911587744951 "/>
    <circle  r="0.55794" cy="302.87748" cx="314.08859" id="leftElbow"/>
    <circle  r="0.55794" cy="326.27666" cx="398.43857" id="leftWrist"/>
   </g>
  </g>
 </g>
</svg>