<svg width="444" height="562" xmlns="http://www.w3.org/2000/svg">
<g id="illustration_1_">
  <path id="cap" d="m183.23838,127.76217c0,0 -30.47621,52.85718 -30.85732,52.42843c0.3811,0.42875 2.28587,12.80971 1.90476,12.38096c0.3811,0.42875 17.52397,1.38113 17.14287,0.95238c0.3811,0.42875 24.19064,-36.23795 23.80954,-36.66669c0.3811,0.42875 2.28587,34.71448 1.90476,34.28574c0.3811,0.42875 9.90492,7.09542 9.52382,6.66667c0.3811,0.42875 16.0954,-2.90459 15.7143,-3.33334c0.3811,0.42875 3.71444,-10.52364 3.33334,-10.95239c0.3811,0.42875 -7.23795,-37.19033 -7.61905,-37.61907c0.3811,0.42875 27.04779,44.2383 26.66669,43.80955c0.3811,0.42875 13.71445,3.28589 13.33334,2.85714c0.3811,0.42875 9.42873,-4.80935 9.04763,-5.2381c0.3811,0.42875 0.3811,-8.61888 0,-9.04763c0.3811,0.42875 -39.14273,-49.57129 -39.52384,-50.00004c0.3811,0.42875 1.80968,-18.61889 1.80968,-19.09508c0,-0.47619 46.19051,-23.33335 45.80941,-23.7621c0.3811,0.42875 3.23825,-11.47602 3.23825,-11.95221c0,-0.47619 -9.52382,-6.19048 -9.52382,-6.66667c0,-0.47619 -7.14286,0 -7.52396,-0.42875c0.3811,0.42875 -28.66654,21.85733 -29.04764,21.42859c0.3811,0.42875 14.66683,-47.66652 14.28572,-48.09527c0.3811,0.42875 -1.99985,-8.14269 -2.38095,-8.57143c0.3811,0.42875 -12.95224,-3.38078 -13.33334,-3.80953c0.3811,0.42875 -7.71414,4.71447 -8.09524,4.28572c0.3811,0.42875 -2.47604,9.95256 -2.85714,9.52382c0.3811,0.42875 -4.857,-2.90459 -5.2381,-3.33334c0.3811,0.42875 -4.857,0.42875 -5.2381,0c0.3811,0.42875 -5.80938,5.19066 -6.19048,4.76191c0.3811,0.42875 -4.3808,-17.19031 -4.76191,-17.61906c0.3811,0.42875 -7.71414,-6.23792 -8.09524,-6.66667c0.3811,0.42875 -11.04748,-0.52363 -11.42858,-0.95238c0.3811,0.42875 -7.23795,6.61923 -7.61905,6.19048c0.3811,0.42875 -1.52366,9.95256 -1.90476,9.52382c0.3811,0.42875 4.66682,19.95257 4.28572,19.52382c0.3811,0.42875 -4.3808,-2.4284 -4.76191,-2.85714c0.3811,0.42875 -9.6189,4.71447 -10.00001,4.28572c0.3811,0.42875 -0.57128,9.00018 -0.95238,8.57143c0.3811,0.42875 25.14303,49.4764 25.14303,49.4764c0,0 0,15.7143 0,15.7143l-0.00004,0.00001z" stroke-width="0" stroke="#000" fill="#a7ea65"/>
  <path id="capc" d="m183.71457,128.71455c0,0 0,-5.71429 -0.3811,-6.14304c0.3811,0.42875 -0.09509,-6.71412 -0.47619,-7.14286c0.3811,0.42875 6.09539,-4.33316 5.71429,-4.76191c0.3811,0.42875 15.14302,-2.90459 14.76192,-3.33334c0.3811,0.42875 26.09541,2.8097 25.7143,2.38095c0.3811,0.42875 3.23825,7.57161 2.85714,7.14286c0.3811,0.42875 -1.52366,9.95256 -1.90476,9.52382c0.3811,0.42875 -18.66653,-3.38078 -19.04763,-3.80953c0.3811,0.42875 -13.42843,1.38113 -13.80953,0.95238c0.3811,0.42875 -13.42843,5.19065 -13.42843,5.19065l-0.00001,0.00002z" stroke-width="0" stroke="#000" fill="#61d46c"/>
  <path id="leftArm" d="m153.23836,271.5718c0,0 -88.57149,39.52384 -88.9526,39.09509c0.38111,0.42874 -21.04748,-0.52364 -21.42859,-0.95238c0.38111,0.42874 -11.52366,-4.33316 -11.90477,-4.76191c0.38111,0.42874 -4.85699,6.61922 -5.2381,6.19048c0.38111,0.42874 7.04778,10.90494 6.66667,10.4762c0.38111,0.42874 -18.19034,0.90493 -18.57144,0.47619c0.38111,0.42874 -0.09508,10.42875 -0.47619,10.00001c0.38111,0.42874 19.90493,2.8097 19.90493,2.33351c0,-0.47619 -12.38096,4.76191 -12.76207,4.33316c0.38111,0.42874 1.33349,7.57161 0.95238,7.14286c0.38111,0.42874 14.66683,0.42874 14.28572,0c0.38111,0.42874 -1.04747,11.38113 -1.42857,10.95239c0.38111,0.42874 8.00016,2.8097 7.61905,2.38095c0.38111,0.42874 38.47637,-16.71413 38.09527,-17.14287c0.38111,0.42874 8.00016,-6.23793 7.61905,-6.66667c0.38111,0.42874 67.04782,-30.04747 66.66671,-30.47621c0.3811,0.42874 -1.04747,-33.3808 -1.04747,-33.3808l0.00002,0z" stroke-width="0" stroke="#000" fill="#62d46a"/>
  <path id="rightArm" d="m276.09558,264.90513l85.80944,40.04747l23.33335,1.42857l9.52382,-4.76191l7.14286,4.76191l-4.28572,10.00001l14.28572,1.42857l2.38095,10.4762l-9.52382,2.85714l3.33334,5.2381l-2.85714,7.14286l-10.4762,0l1.90476,8.57143l-9.52382,1.90476l-45.71432,-19.52382l-7.61905,-7.14286l-55.23813,-25.23811l-2.47604,-37.19033l0,0.00001z" stroke-width="0" stroke="#000" fill="#62d46a"/>
  <path id="head" stroke="#62d46a" fill="#62d46a" d="m194.99997,159.66664l-18.33331,30.66669l-9.66667,6.33333l-1,-2.33333l-3,0.66667l-21.33333,74.66666l142.66666,-0.33333l-26.33333,-76.33333l-14.33333,-2.33333l-25,-43.33333l9,48.66666l-2.33333,0.66667l-3.33333,2.33333l-9,-0.66667l-7,-0.66667l-4,-1.33333l-4.33333,-5.66667l-2.66669,-31.00002z"/>
  <path id="body" stroke="#62d46a" fill="#62d46a" d="m142.66664,272.99996c-1,0 -55.66666,180.99999 -55.99998,180.66669c0.33331,0.3333 9.33331,6.99997 9,6.66667c0.33331,0.3333 79.99997,2.66664 79.66666,2.33333c0.33331,0.3333 0.66665,-23.33336 0.33333,-23.66667c0.33331,0.3333 35.99998,-1.6667 35.66666,-2c0.33331,0.3333 1.66664,24.66663 1.66664,24.66663c0,0 10.66667,-2.33333 10.33335,-2.66664c0.33331,0.3333 0.33331,-21.33336 0,-21.66667c0.33331,0.3333 33.99998,-4.00003 33.66666,-4.33333c0.33331,0.3333 2.99998,23.3333 2.66667,23c0.33331,0.3333 79.66664,-14.6667 79.33333,-15c0.33331,0.3333 5.99998,-6.6667 5.66667,-7c0.33331,0.3333 -61.33335,-170.66669 -61.66666,-170.99999c0.33331,0.3333 -139.33335,9.99997 -140.33335,9.99997z"/>
  <path id="leftBrow" d="m181.15791,207.03506l5.94736,-0.84208l5,0.52632l7.10526,4.21053l3.94737,-1.57895l-5.26316,-6.05263l-7.10526,-2.36842l-8.15789,0l-4.21053,2.36842l2.73685,3.73681z" stroke="#000" fill="#000000"/>
  <path id="rightBrow" d="m225.89475,210.98243l-3.26317,-0.57892l-0.78947,-2.36842l6.05263,-6.05263l9.73684,-1.84211l7.36842,1.57895c0.10528,0.0526 1.68422,2.42102 1.68422,2.42102c0,0 -1.57895,2.89474 -1.68422,2.84213c0.10528,0.0526 -5.94736,-0.73687 -6.05263,-0.78947c0.10528,0.0526 -6.21051,0.84208 -6.31579,0.78947c0.10528,0.0526 -10.6842,0.84208 -6.73683,3.99997l0,0.00001z" stroke="#000" fill="#000000"/>
  <ellipse stroke="#000" stroke-width="0" ry="16.31579" rx="16.18421" id="leftEyeb" cy="228.0877" cx="187.86843" fill="#ffffff"/>
  <ellipse stroke="#000" stroke-width="0" ry="16.31579" rx="16.18421" id="rightEyeb" cy="227.82454" cx="237.07896" fill="#ffffff"/>
  <ellipse ry="12.36842" rx="13.02632" id="leftEye" cy="227.82454" cx="190.23685" stroke="#000" fill="#000000"/>
  <ellipse ry="12.36842" rx="13.02632" id="rightEye" cy="227.82454" cx="239.18422" stroke="#000" fill="#000000"/>
  <path id="mouse" d="m201.68422,247.03506c0,0 7.89474,3.94737 7.78946,3.89476c0.10528,0.0526 6.94738,0.0526 6.84211,0c0.10528,0.0526 4.57896,-3.36845 4.47368,-3.42105c0.10528,0.0526 3.26317,1.10524 3.15789,1.05263c0.10528,0.0526 -3.05262,5.31576 -3.15789,5.26316c0.10528,0.05261 -6.21051,1.89471 -6.31579,1.84211c0.10528,0.05261 -8.57893,-1.00003 -8.68421,-1.05263c0.10528,0.05261 -5.15788,-2.05266 -5.26316,-2.10526c0.10528,0.05261 -0.6842,-3.89476 -0.78947,-3.94737c0.10528,0.0526 1.94738,-1.52634 1.94738,-1.52634l0,-0.00001z" stroke-width="0" stroke="#000" fill="#000000"/>
  <path id="leftFoot" d="m177.0479,440.14334l-1.33349,69.57131l-10.00001,2.85714l-4.76191,12.38096l50.95242,0.47619l-0.95238,-86.66673l-33.90463,1.38112l0,0.00001z" stroke-width="0" stroke="#000" fill="#f4d272"/>
  <path id="rightFoot" d="m223.71459,437.76239l33.90464,-3.28589l0.47619,73.33339l13.33334,6.66667l0.47619,10.00001l-48.57146,0.47619l0.3811,-87.19037z" stroke-width="0" stroke="#000" fill="#f4d272"/>
</g>
<g id="skeleton_1_">
  <polygon points="156.56468200683594,288.3880114901858 182.5304412841797,373.19540184387006 242.61817932128906,372.8809816360099 266.4674377441406,288.3880114901858 " fill="none" stroke-miterlimit="10" id="svg_1" stroke="#000000"/>
  <polyline points="182.5304412841797,373.19540184387006 185.83424377441406,436.15249952232625 185.83424377441406,517.8945874304482 " fill="none" stroke-miterlimit="10" id="svg_4" stroke="#000000"/>
  <polyline points="242.61817932128906,372.8809816360099 242.61817932128906,436.15249952232625 242.61817932128906,517.8945874304482 " fill="none" stroke-miterlimit="10" id="svg_5" stroke="#000000"/>
  <circle id="rightShoulder" cx="127.61632" cy="297.60343" r="1.02075"/>
  <circle id="rightHip" cx="182.58207" cy="373.0775" r="1.02075"/>
  <circle id="rightKnee" cx="185.88586" cy="436.03461" r="1.02075"/>
  <circle id="rightAnkle" cx="185.88586" cy="517.77667" r="1.02077"/>
  <circle id="leftHip" cx="242.66981" cy="372.7631" r="1.02075"/>
  <circle id="leftKnee" cx="242.66981" cy="436.03461" r="1.02075"/>
  <circle id="leftAnkle" cx="242.66981" cy="517.77667" r="1.02077"/>
  <circle id="leftShoulder" cx="291.8524" cy="292.60343" r="1.02075"/>
  <polyline points="212.67741689793002,178.94296264648438 192.84227763545277,180.97775268554688 180.32007866544336,188.71002197265625 171.70481970860055,200.1863250732422 169.200280838857,207.75579833984375 168.39891788830573,217.27870178222656 168.39891788830573,225.01095581054688 169.200280838857,242.67306518554688 176.01247315695946,258.9515380859375 187.6330189579112,269.12548828125 197.6507909178854,274.578857421875 212.67741689793002,277.1833801269531 227.50375008021183,274.9043884277344 237.52149008026936,269.4511413574219 249.14209980105443,259.1956787109375 255.95419623940688,242.917236328125 256.7555911498748,225.3365020751953 256.7555911498748,217.52285766601562 255.95419623940688,208.00001525878906 253.44981716924667,200.51194763183594 245.2351438079295,188.71002197265625 232.612814418997,180.97775268554688 212.67741689793002,178.94296264648438 " fill="none" stroke-miterlimit="10" id="svg_6" stroke="#000000"/>
  <polyline points="176.61352732978958,208.97666931152344 180.6206616817126,205.96517944335938 186.8316400274016,205.15126037597656 194.14454835995275,205.15126037597656 203.9619636023308,208.40696716308594 " fill="none" stroke-miterlimit="10" id="svg_7" stroke="#000000"/>
  <polygon points="182.82445773560357,215.65086364746094 188.03374837306183,212.6393280029297 194.3449050775489,212.6393280029297 199.55416375509049,216.05783081054688 194.3449050775489,216.87176513671875 188.03374837306183,217.52285766601562 " fill="none" stroke-miterlimit="10" id="svg_8" stroke="#000000"/>
  <polyline points="201.15703347581803,230.38284301757812 206.36626019344294,230.38284301757812 211.87605394737875,231.0339813232422 211.87605394737875,226.72018432617188 211.87605394737875,220.94139099121094 211.87605394737875,216.4647674560547 211.87605394737875,211.74403381347656 " fill="none" stroke-miterlimit="10" id="svg_9" stroke="#000000"/>
  <polyline points="248.24057447166342,208.65109252929688 244.2334401197404,206.29078674316406 237.92221949542,205.0698699951172 230.60931116286883,205.3954315185547 220.59155518285297,208.00001525878906 " fill="none" stroke-miterlimit="10" id="svg_10" stroke="#000000"/>
  <polygon points="242.33003532261864,215.65086364746094 237.0205663263623,212.6393280029297 230.70942560183357,212.6393280029297 225.60042518288174,216.05783081054688 230.70942560183357,216.87176513671875 237.0205663263623,217.52285766601562 " fill="none" stroke-miterlimit="10" id="svg_11" stroke="#000000"/>
  <polyline points="222.29449140267025,230.38284301757812 217.28560542268315,230.38284301757812 211.87605394737875,231.0339813232422 " fill="none" stroke-miterlimit="10" id="svg_12" stroke="#000000"/>
  <polygon points="195.14639586776684,248.37051391601562 202.0586387050007,245.60317993164062 208.57021604691727,244.70785522460938 212.67741689793002,245.4403839111328 216.88492394740751,244.70785522460938 223.29633891048434,245.60317993164062 230.20856576775986,248.37051391601562 223.79711884476637,253.4982452392578 216.68459918972803,255.77719116210938 212.67741689793002,256.1841735839844 208.57021604691727,255.77719116210938 201.557778870927,253.4982452392578 " fill="none" stroke-miterlimit="10" id="svg_13" stroke="#000000"/>
  <polyline points="195.14639586776684,248.37051391601562 198.7527049247892,248.6147003173828 208.77044492484674,247.9635772705078 212.67741689793002,248.37051391601562 216.68459918972803,247.9635772705078 226.60217681094582,248.6147003173828 230.20856576775986,248.37051391601562 " fill="none" stroke-miterlimit="10" id="svg_14" stroke="#000000"/>
  <polyline points="195.14639586776684,248.37051391601562 198.7527049247892,248.6147003173828 208.77044492484674,250.32394409179688 212.67741689793002,250.97509765625 216.68459918972803,250.32394409179688 226.60217681094582,248.6147003173828 230.20856576775986,248.37051391601562 " fill="none" stroke-miterlimit="10" id="svg_15" stroke="#000000"/>
  <circle id="rightEye0" cx="182.82453" cy="215.65085" r="0.13224"/>
  <circle id="rightBrow1" cx="180.62063" cy="205.96518" r="0.13224"/>
  <circle id="rightBrow4" cx="203.96201" cy="208.40695" r="0.13224"/>
  <circle id="nose1" cx="211.87605" cy="216.46478" r="0.13224"/>
  <circle id="rightBrow3" cx="194.14461" cy="205.15126" r="0.13224"/>
  <circle id="rightEye1" cx="188.03377" cy="212.63934" r="0.13224"/>
  <circle id="rightBrow0" cx="176.61352" cy="208.97669" r="0.13224"/>
  <circle id="rightBrow2" cx="186.83164" cy="205.15126" r="0.13224"/>
  <circle id="rightEye5" cx="188.03377" cy="217.52287" r="0.13224"/>
  <circle id="rightEye2" cx="194.34496" cy="212.63934" r="0.13224"/>
  <circle id="rightEye3" cx="199.5542" cy="216.05781" r="0.13224"/>
  <circle id="nose0" cx="211.87605" cy="211.74403" r="0.13224"/>
  <circle id="nose3" cx="211.87605" cy="226.72019" r="0.13224"/>
  <circle id="rightNose0" cx="201.15704" cy="230.38284" r="0.13224"/>
  <circle id="rightMouthCorner" cx="195.14638" cy="248.37052" r="0.13224"/>
  <circle id="rightNose1" cx="206.36628" cy="230.38284" r="0.13224"/>
  <circle id="rightUpperLipTop0" cx="202.05864" cy="245.60319" r="0.13224"/>
  <circle id="nose2" cx="211.87605" cy="220.94135" r="0.13224"/>
  <circle id="nose4" cx="211.87605" cy="231.03398" r="0.13224"/>
  <circle id="upperLipTopMid" cx="212.67747" cy="245.4404" r="0.13224"/>
  <circle id="rightUpperLipTop1" cx="208.57019" cy="244.70787" r="0.13224"/>
  <path id="rightMiddleLip" d="m198.75278,247.96356c0.40071,0 0.80142,0.32557 0.80142,0.65114c0,0.32557 -0.40071,0.65114 -0.80142,0.65114s-0.80142,-0.32557 -0.80142,-0.65114s0.40071,-0.65114 0.80142,-0.65114z"/>
  <circle id="lowerLipBottomMid" cx="212.67747" cy="256.18417" r="0.13225"/>
  <circle id="upperLipBottomMid" cx="212.67747" cy="248.37052" r="0.13224"/>
  <circle id="lowerLipTopMid" cx="212.67747" cy="250.89368" r="0.13224"/>
  <circle id="rightUpperLipBottom1" cx="208.77054" cy="247.96356" r="0.13224"/>
  <circle id="rightLowerLipTop0" cx="208.77054" cy="250.32393" r="0.13224"/>
  <circle id="rightLowerLipBottom1" cx="208.57019" cy="255.77721" r="0.13226"/>
  <circle id="rightLowerLipBottom0" cx="201.55775" cy="253.49823" r="0.13224"/>
  <circle id="rightEye4" cx="194.34496" cy="216.87174" r="0.13224"/>
  <circle id="jawMid" cx="212.67747" cy="277.18336" r="0.13225"/>
  <circle id="rightJaw7" cx="197.65082" cy="274.57881" r="0.13225"/>
  <circle id="rightJaw6" cx="187.63306" cy="269.12553" r="0.13225"/>
  <circle id="rightJaw5" cx="176.01245" cy="258.95151" r="0.13225"/>
  <circle id="rightJaw4" cx="169.20038" cy="242.67307" r="0.13224"/>
  <circle id="rightJaw3" cx="168.39895" cy="225.01096" r="0.13224"/>
  <circle id="rightJaw2" cx="168.39895" cy="217.2787" r="0.13224"/>
  <circle id="rightJaw1" cx="169.20038" cy="207.75581" r="0.13224"/>
  <circle id="rightJaw0" cx="171.70482" cy="200.18633" r="0.13224"/>
  <circle id="topMid" cx="212.87782" cy="178.94297" r="0.13226"/>
  <circle id="leftTop0" cx="232.61282" cy="180.97777" r="0.13226"/>
  <circle id="leftTop1" cx="245.2352" cy="188.71003" r="0.13224"/>
  <circle id="leftEye0" cx="242.5304" cy="215.65085" r="0.13224"/>
  <circle id="leftBrow1" cx="244.43378" cy="206.29075" r="0.13224"/>
  <circle id="leftBrow4" cx="220.79186" cy="207.99999" r="0.13224"/>
  <circle id="leftBrow3" cx="230.80962" cy="205.39544" r="0.13224"/>
  <circle id="leftEye1" cx="237.32117" cy="212.63934" r="0.13224"/>
  <circle id="leftBrow0" cx="248.44088" cy="208.65112" r="0.13224"/>
  <circle id="leftBrow2" cx="238.12259" cy="205.06987" r="0.13224"/>
  <circle id="leftEye5" cx="237.32117" cy="217.52287" r="0.13224"/>
  <circle id="leftEye2" cx="231.00998" cy="212.63934" r="0.13224"/>
  <circle id="leftEye3" cx="225.80074" cy="216.05781" r="0.13224"/>
  <circle id="leftNose0" cx="222.29452" cy="230.38284" r="0.13224"/>
  <circle id="leftMouthCorner" cx="230.20855" cy="248.37052" r="0.13224"/>
  <circle id="leftNose1" cx="217.48599" cy="230.38284" r="0.13224"/>
  <circle id="leftUpperLipTop0" cx="223.2963" cy="245.60319" r="0.13224"/>
  <circle id="leftUpperLipTop1" cx="216.88493" cy="244.70787" r="0.13224"/>
  <path id="leftMiddleLip" d="m226.60216,247.96356c0.40071,0 0.80142,0.32557 0.80142,0.65114c0,0.32557 -0.40071,0.65114 -0.80142,0.65114s-0.80142,-0.32557 -0.80142,-0.65114s0.40071,-0.65114 0.80142,-0.65114z"/>
  <circle id="leftUpperLipBottom1" cx="216.68457" cy="247.96356" r="0.13224"/>
  <circle id="leftLowerLipTop0" cx="216.68457" cy="250.32393" r="0.13224"/>
  <circle id="leftLowerLipBottom1" cx="216.88493" cy="255.77721" r="0.13226"/>
  <circle id="leftLowerLipBottom0" cx="223.79719" cy="253.49823" r="0.13224"/>
  <circle id="leftEye4" cx="231.00998" cy="216.87174" r="0.13224"/>
  <circle id="leftJaw7" cx="227.50376" cy="274.90438" r="0.13225"/>
  <circle id="leftJaw6" cx="237.52152" cy="269.4511" r="0.13225"/>
  <circle id="leftJaw5" cx="249.14213" cy="259.19569" r="0.13225"/>
  <circle id="leftJaw4" cx="255.95421" cy="242.91724" r="0.13224"/>
  <circle id="leftJaw3" cx="256.75563" cy="225.33653" r="0.13224"/>
  <circle id="leftJaw2" cx="256.75563" cy="217.52287" r="0.13224"/>
  <circle id="leftJaw1" cx="255.95421" cy="207.99999" r="0.13224"/>
  <circle id="leftJaw0" cx="253.44976" cy="200.5119" r="0.13224"/>
  <circle id="rightTop0" cx="192.94247" cy="180.97777" r="0.13226"/>
  <circle id="rightTop1" cx="180.32009" cy="188.71003" r="0.13224"/>
  <circle id="rightElbow" cx="89.35445" cy="308.80924" r="0.68741"/>
  <polyline points="287.06887124478817,305.27353596687317 330.1675345748663,305.27353596687317 398.3651969283819,330.47467732429504 " fill="none" stroke-miterlimit="10" id="svg_3" stroke="#000000"/>
  <circle id="leftElbow" cx="330.084" cy="304.48598" r="0.45137"/>
  <circle id="leftWrist" cx="398.32351" cy="329.29313" r="0.45137"/>
  <polyline points="131.59194487333298,312.9870071411133 91.25736540555954,312.9870071411133 27.122649371623993,327.4737014770508 " fill="none" stroke-miterlimit="10" id="svg_2" stroke="#000000"/>
  <circle id="rightWrist" cx="27.2012" cy="327.24388" r="0.28325"/>
</g>
</svg>